<svg xmlns="http://www.w3.org/2000/svg" width="26" height="26" viewBox="0 0 26 26" fill="none">
  <path fill-rule="evenodd" clip-rule="evenodd" d="M11.5879 24.8602V24.8602C5.43148 23.6289 0.999991 18.2234 1 11.9451V7.66668C1 3.98477 3.98477 1 7.66668 1H18.3334C22.0153 1 25 3.98477 25 7.66668V11.945C25 18.2232 20.5687 23.6287 14.4124 24.8601H14.4121C13.48 25.0466 12.5201 25.0466 11.5879 24.8602V24.8602Z" stroke="#CDB28B" stroke-width="2" stroke-linecap="round" stroke-linejoin="round"/>
  <path d="M10.1449 15.3334C10.672 16.4152 11.7988 17.073 13 17.0001C14.466 17.1601 15.7943 16.1271 16 14.6667V14.6667C16 13.6589 15.2886 12.7911 14.3003 12.5935L11.6997 12.0733C10.7114 11.8757 10 11.0079 10 10.0001V10.0001C10.2058 8.53974 11.534 7.50669 13 7.66673C14.2012 7.59378 15.328 8.25158 15.8551 9.3334" stroke="#424C57" stroke-width="2" stroke-linecap="round" stroke-linejoin="round"/>
</svg>