<svg xmlns="http://www.w3.org/2000/svg" width="16" height="16" viewBox="0 0 16 16" fill="none">
  <path d="M4.66663 12V10.6667M7.99996 12V10M11.3333 12V8.66667M1.66663 8C1.66663 5.01444 1.66663 3.52166 2.59412 2.59416C3.52162 1.66667 5.0144 1.66667 7.99996 1.66667C10.9855 1.66667 12.4783 1.66667 13.4058 2.59416C14.3333 3.52166 14.3333 5.01444 14.3333 8C14.3333 10.9855 14.3333 12.4783 13.4058 13.4059C12.4783 14.3333 10.9855 14.3333 7.99996 14.3333C5.0144 14.3333 3.52162 14.3333 2.59412 13.4059C1.66663 12.4783 1.66663 10.9855 1.66663 8Z" stroke="#424C57" stroke-linecap="round" stroke-linejoin="round"/>
  <path d="M3.99475 7.65753C5.43148 7.7054 8.68936 7.48853 10.5424 4.54755M9.32816 4.19223L10.5785 3.99099C10.7309 3.97159 10.9546 4.0919 11.0096 4.23532L11.3402 5.32761" stroke="#424C57" stroke-linecap="round" stroke-linejoin="round"/>
</svg>