<svg width="12" height="6" viewBox="0 0 12 6" fill="none" xmlns="http://www.w3.org/2000/svg">
<path d="M11.84 0.146624C11.7894 0.100142 11.7292 0.0632668 11.663 0.0381079C11.5968 0.012949 11.5258 0 11.4542 0C11.3825 0 11.3115 0.012949 11.2453 0.0381079C11.1791 0.0632668 11.1189 0.100142 11.0683 0.146624L5.99994 4.79289L0.93161 0.146624C0.829267 0.0528154 0.69046 0.000114441 0.545725 0.000114441C0.400989 0.000114441 0.262182 0.0528154 0.159839 0.146624C0.0574958 0.240432 2.85308e-09 0.367663 0 0.500328C-2.85307e-09 0.632992 0.0574958 0.760223 0.159839 0.854032L5.61405 5.85338C5.66471 5.89986 5.72486 5.93673 5.79107 5.96189C5.85729 5.98705 5.92826 6 5.99994 6C6.07161 6 6.14259 5.98705 6.2088 5.96189C6.27501 5.93673 6.33517 5.89986 6.38582 5.85338L11.84 0.854032C11.8907 0.807601 11.931 0.752463 11.9584 0.691772C11.9859 0.631081 12 0.566027 12 0.500328C12 0.434628 11.9859 0.369573 11.9584 0.308882C11.931 0.248191 11.8907 0.193054 11.84 0.146624Z" fill="#778698"/>
</svg>
