<svg xmlns="http://www.w3.org/2000/svg" width="10" height="8" viewBox="0 0 10 8" fill="none">
    <path d="M1.25028 1.66675H8.75028C8.82621 1.66694 8.90064 1.6837 8.96556 1.71521C9.03048 1.74673 9.08342 1.79181 9.11869 1.8456C9.15397 1.8994 9.17023 1.95987 9.16574 2.02051C9.16125 2.08116 9.13617 2.13967 9.0932 2.18975L5.3432 6.52309C5.18778 6.70275 4.81361 6.70275 4.65778 6.52309L0.90778 2.18975C0.864373 2.13977 0.838919 2.08123 0.834182 2.02049C0.829445 1.95975 0.845606 1.89913 0.880911 1.84522C0.916215 1.79131 0.969311 1.74617 1.03443 1.71471C1.09955 1.68324 1.1742 1.66666 1.25028 1.66675Z" fill="#9ba4b0"/>
</svg>