<svg width="10" height="10" viewBox="0 0 10 10" fill="none" xmlns="http://www.w3.org/2000/svg">
<path d="M5.5625 7.4375C5.5625 7.54875 5.52951 7.65751 5.4677 7.75001C5.4059 7.84251 5.31804 7.91461 5.21526 7.95718C5.11248 7.99976 4.99938 8.0109 4.89026 7.98919C4.78115 7.96749 4.68092 7.91391 4.60225 7.83525C4.52359 7.75658 4.47001 7.65635 4.44831 7.54724C4.42661 7.43812 4.43775 7.32502 4.48032 7.22224C4.52289 7.11946 4.59499 7.03161 4.68749 6.9698C4.78 6.90799 4.88875 6.875 5 6.875C5.14919 6.875 5.29226 6.93426 5.39775 7.03975C5.50324 7.14524 5.5625 7.28832 5.5625 7.4375ZM5 2.375C3.96594 2.375 3.125 3.13203 3.125 4.0625V4.25C3.125 4.34946 3.16451 4.44484 3.23484 4.51516C3.30516 4.58549 3.40055 4.625 3.5 4.625C3.59946 4.625 3.69484 4.58549 3.76517 4.51516C3.83549 4.44484 3.875 4.34946 3.875 4.25V4.0625C3.875 3.54688 4.37985 3.125 5 3.125C5.62016 3.125 6.125 3.54688 6.125 4.0625C6.125 4.57812 5.62016 5 5 5C4.90055 5 4.80516 5.03951 4.73484 5.10983C4.66451 5.18016 4.625 5.27554 4.625 5.375V5.75C4.625 5.84946 4.66451 5.94484 4.73484 6.01517C4.80516 6.08549 4.90055 6.125 5 6.125C5.09946 6.125 5.19484 6.08549 5.26517 6.01517C5.33549 5.94484 5.375 5.84946 5.375 5.75V5.71625C6.23 5.55922 6.875 4.87719 6.875 4.0625C6.875 3.13203 6.03406 2.375 5 2.375ZM9.875 5C9.875 5.96418 9.58909 6.90671 9.05342 7.7084C8.51775 8.51009 7.75637 9.13494 6.86558 9.50391C5.97479 9.87289 4.99459 9.96943 4.04894 9.78133C3.10328 9.59323 2.23464 9.12893 1.55286 8.44715C0.871076 7.76536 0.406777 6.89672 0.218674 5.95107C0.030571 5.00541 0.127112 4.02521 0.496089 3.13442C0.865067 2.24363 1.48991 1.48226 2.2916 0.946586C3.09329 0.410914 4.03582 0.125 5 0.125C6.29251 0.126365 7.5317 0.640418 8.44564 1.55436C9.35958 2.46831 9.87364 3.70749 9.875 5ZM9.125 5C9.125 4.18415 8.88307 3.38663 8.42981 2.70827C7.97655 2.02992 7.33232 1.50121 6.57857 1.189C5.82483 0.876785 4.99543 0.795097 4.19525 0.954261C3.39508 1.11342 2.66008 1.50629 2.08319 2.08318C1.5063 2.66008 1.11343 3.39508 0.954263 4.19525C0.795099 4.99542 0.876788 5.82482 1.189 6.57857C1.50121 7.33231 2.02992 7.97655 2.70827 8.42981C3.38663 8.88307 4.18415 9.125 5 9.125C6.09364 9.12376 7.14213 8.68876 7.91545 7.91545C8.68877 7.14213 9.12376 6.09364 9.125 5Z" fill="#778698"/>
</svg>
