<svg xmlns="http://www.w3.org/2000/svg" width="20" height="16" viewBox="0 0 20 16" fill="none">
  <g clip-path="url(#clip0_361_11635)">
    <path d="M8.64396 11.4974H6.02396V9.45887H8.64396C9.24196 9.45887 9.72396 9.90876 9.72396 10.4669C9.72396 11.0251 9.24196 11.4974 8.64396 11.4974ZM6.02196 5.77016H8.41196C9.00996 5.77016 9.49196 6.22004 9.49196 6.77821C9.49196 7.33637 9.00996 7.78626 8.41196 7.78626H6.02196V5.77016ZM11.172 8.40789C11.54 7.958 11.77 7.39984 11.77 6.77821C11.77 5.29787 10.482 4.09754 8.89596 4.09754H3.63196V13.1476H9.35596C10.942 13.1476 12.23 11.9473 12.23 10.4669C12.23 9.63062 11.816 8.90071 11.172 8.40789ZM20 2.46599C20 2.78707 19.862 3.06709 19.586 3.28176C19.31 3.49644 18.966 3.60285 18.552 3.60285C18.162 3.60285 17.816 3.49644 17.54 3.3023C17.264 3.11002 17.104 2.85241 17.058 2.50893H18.138C18.23 2.7012 18.368 2.80947 18.574 2.80947C18.712 2.80947 18.804 2.78894 18.896 2.7236C18.988 2.66013 19.01 2.57426 19.01 2.46599C19.01 2.35958 18.964 2.29425 18.896 2.23078C18.804 2.16731 18.712 2.14491 18.552 2.14491H18.184V1.43741H18.528C18.666 1.43741 18.78 1.41687 18.85 1.35153C18.918 1.28806 18.964 1.22273 18.964 1.13686C18.964 1.03045 18.918 0.944581 18.85 0.879244C18.782 0.815774 18.666 0.793373 18.552 0.793373C18.414 0.793373 18.322 0.836309 18.23 0.92218C18.184 0.965115 18.138 1.02858 18.116 1.11446H17.104C17.172 0.770972 17.31 0.492825 17.586 0.298682C17.84 0.106405 18.16 0 18.552 0C18.966 0 19.288 0.106405 19.564 0.300548C19.816 0.515226 19.954 0.772839 19.954 1.09392C19.954 1.39447 19.816 1.60915 19.564 1.75849C19.862 1.9097 20 2.16544 20 2.46599Z" fill="#778698"/>
    <path d="M3.656 2.35958V1.24326H0V16H3.656V14.9061H1.196V2.35958H3.656ZM12.16 14.9061V16H15.816V1.24326H12.16V2.35772H14.642V14.9061H12.16Z" fill="#778698"/>
  </g>
  <defs>
    <clipPath id="clip0_361_11635">
      <rect width="20" height="16" fill="white"/>
    </clipPath>
  </defs>
</svg>