<svg
                    xmlns="http://www.w3.org/2000/svg"
                    width="24"
                    height="24"
                    viewBox="0 0 24 24"
                    fill="none"
                >
                    <path
                        d="M11.0307 4.71896C11.1005 4.78861 11.1558 4.87133 11.1935 4.96238C11.2313 5.05343 11.2507 5.15102 11.2507 5.24958C11.2507 5.34814 11.2313 5.44574 11.1935 5.53679C11.1558 5.62784 11.1005 5.71055 11.0307 5.78021L5.56041 11.2496L20.2501 11.2496C20.449 11.2496 20.6398 11.3286 20.7804 11.4693C20.9211 11.6099 21.0001 11.8007 21.0001 11.9996C21.0001 12.1985 20.9211 12.3893 20.7804 12.5299C20.6398 12.6706 20.449 12.7496 20.2501 12.7496H5.56041L11.0307 18.219C11.1715 18.3597 11.2505 18.5506 11.2505 18.7496C11.2505 18.9486 11.1715 19.1395 11.0307 19.2802C10.89 19.4209 10.6991 19.5 10.5001 19.5C10.3011 19.5 10.1102 19.4209 9.96948 19.2802L3.21948 12.5302C3.14974 12.4606 3.09443 12.3778 3.05668 12.2868C3.01894 12.1957 2.99951 12.0981 2.99951 11.9996C2.99951 11.901 3.01894 11.8034 3.05668 11.7124C3.09443 11.6213 3.14974 11.5386 3.21948 11.469L9.96948 4.71896C10.0391 4.64922 10.1218 4.59391 10.2129 4.55616C10.3039 4.51842 10.4015 4.49899 10.5001 4.49899C10.5987 4.49899 10.6963 4.51842 10.7873 4.55616C10.8784 4.59391 10.9611 4.64922 11.0307 4.71896Z"
                        fill="#778698"
                    />
                </svg>