<svg width="108" height="34" viewBox="0 0 108 34" fill="none" xmlns="http://www.w3.org/2000/svg">
<mask id="path-1-outside-1_1162_4394" maskUnits="userSpaceOnUse" x="0" y="0" width="108" height="34" fill="black">
<rect fill="white" width="108" height="34"/>
<path d="M1 9C1 4.58172 4.58172 1 9 1H99C103.418 1 107 4.58172 107 9V25C107 29.4183 103.418 33 99 33H9C4.58172 33 1 29.4183 1 25V9Z"/>
</mask>
<path d="M1 9C1 4.58172 4.58172 1 9 1H99C103.418 1 107 4.58172 107 9V25C107 29.4183 103.418 33 99 33H9C4.58172 33 1 29.4183 1 25V9Z" fill="white"/>
<path d="M9 1.5H99V0.5H9V1.5ZM106.5 9V25H107.5V9H106.5ZM99 32.5H9V33.5H99V32.5ZM1.5 25V9H0.5V25H1.5ZM9 32.5C4.85786 32.5 1.5 29.1421 1.5 25H0.5C0.5 29.6944 4.30558 33.5 9 33.5V32.5ZM106.5 25C106.5 29.1421 103.142 32.5 99 32.5V33.5C103.694 33.5 107.5 29.6944 107.5 25H106.5ZM99 1.5C103.142 1.5 106.5 4.85786 106.5 9H107.5C107.5 4.30558 103.694 0.5 99 0.5V1.5ZM9 0.5C4.30558 0.5 0.5 4.30558 0.5 9H1.5C1.5 4.85786 4.85786 1.5 9 1.5V0.5Z" fill="#E3E6ED" mask="url(#path-1-outside-1_1162_4394)"/>
<path d="M22 11H20.5V10.5C20.5 10.3674 20.4473 10.2402 20.3536 10.1464C20.2598 10.0527 20.1326 10 20 10C19.8674 10 19.7402 10.0527 19.6464 10.1464C19.5527 10.2402 19.5 10.3674 19.5 10.5V11H14.5V10.5C14.5 10.3674 14.4473 10.2402 14.3536 10.1464C14.2598 10.0527 14.1326 10 14 10C13.8674 10 13.7402 10.0527 13.6464 10.1464C13.5527 10.2402 13.5 10.3674 13.5 10.5V11H12C11.7348 11 11.4804 11.1054 11.2929 11.2929C11.1054 11.4804 11 11.7348 11 12V22C11 22.2652 11.1054 22.5196 11.2929 22.7071C11.4804 22.8946 11.7348 23 12 23H22C22.2652 23 22.5196 22.8946 22.7071 22.7071C22.8946 22.5196 23 22.2652 23 22V12C23 11.7348 22.8946 11.4804 22.7071 11.2929C22.5196 11.1054 22.2652 11 22 11ZM13.5 12V12.5C13.5 12.6326 13.5527 12.7598 13.6464 12.8536C13.7402 12.9473 13.8674 13 14 13C14.1326 13 14.2598 12.9473 14.3536 12.8536C14.4473 12.7598 14.5 12.6326 14.5 12.5V12H19.5V12.5C19.5 12.6326 19.5527 12.7598 19.6464 12.8536C19.7402 12.9473 19.8674 13 20 13C20.1326 13 20.2598 12.9473 20.3536 12.8536C20.4473 12.7598 20.5 12.6326 20.5 12.5V12H22V14H12V12H13.5ZM22 22H12V15H22V22Z" fill="#778698"/>
<path d="M34.068 21V12.6H35.316L38.1 16.716L40.872 12.6H42.12V21H40.944V14.496L38.088 18.708L35.244 14.508V21H34.068ZM46.6276 21.144C46.0436 21.144 45.5276 21.012 45.0796 20.748C44.6316 20.476 44.2796 20.104 44.0236 19.632C43.7676 19.16 43.6396 18.616 43.6396 18C43.6396 17.384 43.7676 16.84 44.0236 16.368C44.2796 15.896 44.6316 15.528 45.0796 15.264C45.5356 14.992 46.0556 14.856 46.6396 14.856C47.1916 14.856 47.6756 14.996 48.0916 15.276C48.5076 15.548 48.8316 15.94 49.0636 16.452C49.3036 16.956 49.4236 17.552 49.4236 18.24H44.5756L44.7916 18.06C44.7916 18.484 44.8756 18.852 45.0436 19.164C45.2116 19.476 45.4396 19.716 45.7276 19.884C46.0156 20.044 46.3436 20.124 46.7116 20.124C47.1116 20.124 47.4436 20.032 47.7076 19.848C47.9796 19.656 48.1916 19.416 48.3436 19.128L49.3276 19.584C49.1676 19.896 48.9596 20.172 48.7036 20.412C48.4476 20.644 48.1436 20.824 47.7916 20.952C47.4476 21.08 47.0596 21.144 46.6276 21.144ZM44.8636 17.52L44.6356 17.34H48.4276L48.2116 17.52C48.2116 17.168 48.1396 16.868 47.9956 16.62C47.8516 16.364 47.6596 16.172 47.4196 16.044C47.1796 15.908 46.9116 15.84 46.6156 15.84C46.3276 15.84 46.0476 15.908 45.7756 16.044C45.5116 16.172 45.2916 16.36 45.1156 16.608C44.9476 16.856 44.8636 17.16 44.8636 17.52ZM50.5498 21V15H51.6178L51.6898 16.104V21H50.5498ZM54.7018 21V17.928H55.8418V21H54.7018ZM54.7018 17.928C54.7018 17.384 54.6378 16.972 54.5098 16.692C54.3898 16.404 54.2178 16.204 53.9938 16.092C53.7778 15.98 53.5258 15.92 53.2378 15.912C52.7498 15.912 52.3698 16.084 52.0978 16.428C51.8258 16.772 51.6898 17.256 51.6898 17.88H51.1978C51.1978 17.248 51.2898 16.708 51.4738 16.26C51.6658 15.804 51.9338 15.456 52.2778 15.216C52.6298 14.976 53.0458 14.856 53.5258 14.856C53.9978 14.856 54.4058 14.952 54.7498 15.144C55.1018 15.336 55.3698 15.636 55.5538 16.044C55.7458 16.444 55.8418 16.972 55.8418 17.628V17.928H54.7018ZM59.4244 21.144C59.0004 21.144 58.6204 21.08 58.2844 20.952C57.9564 20.824 57.6764 20.652 57.4444 20.436C57.2204 20.22 57.0524 19.976 56.9404 19.704L57.9244 19.272C58.0524 19.52 58.2444 19.724 58.5004 19.884C58.7564 20.044 59.0404 20.124 59.3524 20.124C59.6964 20.124 59.9804 20.06 60.2044 19.932C60.4284 19.804 60.5404 19.624 60.5404 19.392C60.5404 19.168 60.4564 18.992 60.2884 18.864C60.1204 18.736 59.8764 18.632 59.5564 18.552L58.9924 18.408C58.4324 18.256 57.9964 18.028 57.6844 17.724C57.3804 17.42 57.2284 17.076 57.2284 16.692C57.2284 16.108 57.4164 15.656 57.7924 15.336C58.1684 15.016 58.7244 14.856 59.4604 14.856C59.8204 14.856 60.1484 14.908 60.4444 15.012C60.7484 15.116 61.0044 15.264 61.2124 15.456C61.4284 15.648 61.5804 15.876 61.6684 16.14L60.7084 16.572C60.6124 16.332 60.4484 16.156 60.2164 16.044C59.9844 15.924 59.7124 15.864 59.4004 15.864C59.0804 15.864 58.8284 15.936 58.6444 16.08C58.4604 16.216 58.3684 16.408 58.3684 16.656C58.3684 16.792 58.4444 16.924 58.5964 17.052C58.7564 17.172 58.9884 17.272 59.2924 17.352L59.9404 17.508C60.3324 17.604 60.6564 17.752 60.9124 17.952C61.1684 18.144 61.3604 18.364 61.4884 18.612C61.6164 18.852 61.6804 19.104 61.6804 19.368C61.6804 19.728 61.5804 20.044 61.3804 20.316C61.1884 20.58 60.9204 20.784 60.5764 20.928C60.2404 21.072 59.8564 21.144 59.4244 21.144ZM66.5502 21L66.5022 19.956V17.868C66.5022 17.428 66.4502 17.06 66.3462 16.764C66.2502 16.468 66.0982 16.244 65.8902 16.092C65.6902 15.94 65.4222 15.864 65.0862 15.864C64.7742 15.864 64.5022 15.928 64.2702 16.056C64.0462 16.184 63.8582 16.384 63.7062 16.656L62.6982 16.272C62.8422 16 63.0222 15.76 63.2382 15.552C63.4542 15.336 63.7142 15.168 64.0182 15.048C64.3222 14.92 64.6782 14.856 65.0862 14.856C65.6542 14.856 66.1262 14.968 66.5022 15.192C66.8782 15.416 67.1582 15.74 67.3422 16.164C67.5342 16.588 67.6262 17.112 67.6182 17.736L67.6062 21H66.5502ZM64.7862 21.144C64.0742 21.144 63.5182 20.984 63.1182 20.664C62.7262 20.336 62.5302 19.884 62.5302 19.308C62.5302 18.692 62.7342 18.224 63.1422 17.904C63.5582 17.576 64.1342 17.412 64.8702 17.412H66.5382V18.312H65.1822C64.6302 18.312 64.2422 18.4 64.0182 18.576C63.7942 18.744 63.6822 18.98 63.6822 19.284C63.6822 19.564 63.7862 19.784 63.9942 19.944C64.2102 20.096 64.5062 20.172 64.8822 20.172C65.2102 20.172 65.4942 20.104 65.7342 19.968C65.9742 19.824 66.1622 19.624 66.2982 19.368C66.4342 19.112 66.5022 18.82 66.5022 18.492H66.8982C66.8982 19.308 66.7222 19.956 66.3702 20.436C66.0262 20.908 65.4982 21.144 64.7862 21.144ZM69.0537 21V12.6H70.1937V21H69.0537Z" fill="#778698"/>
<path d="M83.4002 15H90.6004C90.6733 15.0002 90.7448 15.0136 90.8071 15.0388C90.8694 15.0641 90.9203 15.1002 90.9541 15.1433C90.988 15.1865 91.0036 15.2349 90.9993 15.2835C90.995 15.3321 90.9709 15.379 90.9297 15.4191L87.3296 18.892C87.1803 19.036 86.8211 19.036 86.6715 18.892L83.0714 15.4191C83.0298 15.3791 83.0053 15.3322 83.0008 15.2835C82.9962 15.2348 83.0117 15.1862 83.0456 15.143C83.0795 15.0998 83.1305 15.0636 83.193 15.0384C83.2555 15.0132 83.3272 14.9999 83.4002 15Z" fill="#778698"/>
</svg>
