<svg xmlns="http://www.w3.org/2000/svg" width="20" height="20" viewBox="0 0 20 20" fill="none">
  <path d="M17.0834 13.1898C14.9988 18.13 8.2201 19.5696 4.33456 15.7201C0.52461 11.9456 1.70415 5.10736 6.71382 2.91667" stroke="#2C3A53" stroke-width="1.5" stroke-linecap="round"/>
  <path d="M14.736 10.4167C16.309 10.4167 17.0955 10.4167 17.6035 9.7125C17.6225 9.68616 17.654 9.63891 17.671 9.61133C18.1273 8.87258 17.8921 8.305 17.422 7.16981C16.9955 6.14044 16.3706 5.20512 15.5828 4.41727C14.7949 3.62942 13.8596 3.00446 12.8302 2.57808C11.695 2.10788 11.1275 1.87277 10.3887 2.32897C10.3611 2.34602 10.3139 2.37757 10.2875 2.39655C9.58337 2.9045 9.58337 3.69101 9.58337 5.26405V7.0229C9.58337 8.62275 9.58337 9.42266 10.0804 9.91966C10.5774 10.4167 11.3773 10.4167 12.9771 10.4167H14.736Z" stroke="#2C3A53" stroke-width="1.5"/>
</svg>