<svg xmlns="http://www.w3.org/2000/svg" width="20" height="20" viewBox="0 0 20 20" fill="none">
  <path d="M17.0835 13.1898C14.9989 18.13 8.22022 19.5696 4.33469 15.7201C0.524732 11.9456 1.70427 5.10736 6.71394 2.91666" stroke="white" stroke-width="1.5" stroke-linecap="round"/>
  <path d="M14.7361 10.4167C16.3092 10.4167 17.0957 10.4167 17.6036 9.7125C17.6226 9.68617 17.6542 9.63892 17.6712 9.61134C18.1274 8.87259 17.8922 8.305 17.4221 7.16982C16.9957 6.14045 16.3707 5.20513 15.5829 4.41728C14.795 3.62943 13.8597 3.00447 12.8303 2.57809C11.6952 2.10789 11.1276 1.87278 10.3888 2.32898C10.3612 2.34603 10.314 2.37758 10.2877 2.39656C9.5835 2.9045 9.5835 3.69102 9.5835 5.26405V7.0229C9.5835 8.62275 9.5835 9.42267 10.0805 9.91967C10.5775 10.4167 11.3774 10.4167 12.9772 10.4167H14.7361Z" stroke="white" stroke-width="1.5"/>
</svg>