<svg xmlns="http://www.w3.org/2000/svg" width="16" height="16" viewBox="0 0 16 16" fill="none">
<path d="M14.3538 4.85372L6.35378 12.8537C6.30735 12.9002 6.2522 12.9371 6.1915 12.9623C6.13081 12.9874 6.06574 13.0004 6.00003 13.0004C5.93433 13.0004 5.86926 12.9874 5.80856 12.9623C5.74786 12.9371 5.69272 12.9002 5.64628 12.8537L2.14628 9.35372C2.05246 9.2599 1.99976 9.13265 1.99976 8.99997C1.99976 8.86729 2.05246 8.74004 2.14628 8.64622C2.2401 8.5524 2.36735 8.49969 2.50003 8.49969C2.63272 8.49969 2.75996 8.5524 2.85378 8.64622L6.00003 11.7931L13.6463 4.14622C13.7401 4.0524 13.8674 3.99969 14 3.99969C14.1327 3.99969 14.26 4.0524 14.3538 4.14622C14.4476 4.24004 14.5003 4.36729 14.5003 4.49997C14.5003 4.63265 14.4476 4.7599 14.3538 4.85372Z" fill="#424C57"/>
</svg>