<svg width="16" height="16" viewBox="0 0 16 16" fill="none" xmlns="http://www.w3.org/2000/svg">
<path d="M14.3538 4.85378L6.35378 12.8538C6.30735 12.9003 6.2522 12.9372 6.1915 12.9623C6.13081 12.9875 6.06574 13.0004 6.00003 13.0004C5.93433 13.0004 5.86926 12.9875 5.80856 12.9623C5.74786 12.9372 5.69272 12.9003 5.64628 12.8538L2.14628 9.35378C2.05246 9.25996 1.99976 9.13272 1.99976 9.00003C1.99976 8.86735 2.05246 8.7401 2.14628 8.64628C2.2401 8.55246 2.36735 8.49976 2.50003 8.49976C2.63272 8.49976 2.75996 8.55246 2.85378 8.64628L6.00003 11.7932L13.6463 4.14628C13.7401 4.05246 13.8674 3.99976 14 3.99976C14.1327 3.99976 14.26 4.05246 14.3538 4.14628C14.4476 4.2401 14.5003 4.36735 14.5003 4.50003C14.5003 4.63272 14.4476 4.75996 14.3538 4.85378Z" fill="white"/>
</svg>
