<svg xmlns="http://www.w3.org/2000/svg" width="24" height="24" viewBox="0 0 24 24" fill="none">
  <path d="M15.4029 12.9721C18.8931 12.9721 21.7224 12.1016 21.7224 11.0277C21.7224 9.95381 18.8931 9.08325 15.4029 9.08325C11.9128 9.08325 9.0835 9.95381 9.0835 11.0277C9.0835 12.1016 11.9128 12.9721 15.4029 12.9721Z" stroke="#778698"/>
  <path d="M21.7224 15.4026C21.7224 16.4765 18.8931 17.347 15.4029 17.347C11.9128 17.347 9.0835 16.4765 9.0835 15.4026" stroke="#778698"/>
  <path d="M21.7224 11.0276V19.5831C21.7224 20.7644 18.8931 21.722 15.4029 21.722C11.9128 21.722 9.0835 20.7644 9.0835 19.5831V11.0276" stroke="#778698"/>
  <path d="M8.59728 6.16648C12.0874 6.16648 14.9167 5.29592 14.9167 4.22203C14.9167 3.14815 12.0874 2.27759 8.59728 2.27759C5.10714 2.27759 2.27783 3.14815 2.27783 4.22203C2.27783 5.29592 5.10714 6.16648 8.59728 6.16648Z" stroke="#778698"/>
  <path d="M6.16672 11.0277C4.32746 10.8039 2.63747 10.2251 2.27783 9.08325M6.16672 15.8888C4.32746 15.665 2.63747 15.0862 2.27783 13.9444" stroke="#778698" stroke-linecap="round"/>
  <path d="M6.16672 20.7499C4.32746 20.5261 2.63747 19.9474 2.27783 18.8055V4.22217" stroke="#778698" stroke-linecap="round"/>
  <path d="M14.9167 6.16661V4.22217" stroke="#778698" stroke-linecap="round"/>
</svg>