<svg width="28" height="28" viewBox="0 0 28 28" fill="none" xmlns="http://www.w3.org/2000/svg">
<path d="M17.889 15.1112C21.8777 15.1112 25.1112 14.1163 25.1112 12.889C25.1112 11.6617 21.8777 10.6667 17.889 10.6667C13.9002 10.6667 10.6667 11.6617 10.6667 12.889C10.6667 14.1163 13.9002 15.1112 17.889 15.1112Z" stroke="#778698"/>
<path d="M25.1112 17.8889C25.1112 19.1162 21.8777 20.1111 17.889 20.1111C13.9002 20.1111 10.6667 19.1162 10.6667 17.8889" stroke="#778698"/>
<path d="M25.1112 12.8889V22.6667C25.1112 24.0167 21.8777 25.1111 17.889 25.1111C13.9002 25.1111 10.6667 24.0167 10.6667 22.6667V12.8889" stroke="#778698"/>
<path d="M10.1111 7.33336C14.0999 7.33336 17.3334 6.33844 17.3334 5.11114C17.3334 3.88384 14.0999 2.88892 10.1111 2.88892C6.12241 2.88892 2.88892 3.88384 2.88892 5.11114C2.88892 6.33844 6.12241 7.33336 10.1111 7.33336Z" stroke="#778698"/>
<path d="M7.33336 12.889C5.23135 12.6332 3.29993 11.9717 2.88892 10.6667M7.33336 18.4445C5.23135 18.1887 3.29993 17.5273 2.88892 16.2223" stroke="#778698" stroke-linecap="round"/>
<path d="M7.33336 24C5.23135 23.7442 3.29993 23.0828 2.88892 21.7778V5.11108" stroke="#778698" stroke-linecap="round"/>
<path d="M17.3335 7.33331V5.11108" stroke="#778698" stroke-linecap="round"/>
</svg>
