<svg width="17" height="16" viewBox="0 0 17 16" fill="none" xmlns="http://www.w3.org/2000/svg">
<path d="M9.85354 8.64664C9.8071 8.60015 9.75196 8.56328 9.69126 8.53811C9.63056 8.51295 9.5655 8.5 9.49979 8.5C9.43408 8.5 9.36902 8.51295 9.30832 8.53811C9.24762 8.56328 9.19248 8.60015 9.14604 8.64664L7.99979 9.79352L6.70666 8.50039L7.85354 7.35414C7.94736 7.26032 8.00007 7.13308 8.00007 7.00039C8.00007 6.86771 7.94736 6.74046 7.85354 6.64664C7.75972 6.55282 7.63247 6.50012 7.49979 6.50012C7.36711 6.50012 7.23986 6.55282 7.14604 6.64664L5.99979 7.79352L4.85354 6.64664C4.75972 6.55282 4.63247 6.50012 4.49979 6.50012C4.36711 6.50012 4.23986 6.55282 4.14604 6.64664C4.05222 6.74046 3.99951 6.86771 3.99951 7.00039C3.99951 7.13308 4.05222 7.26032 4.14604 7.35414L4.54291 7.75039L3.08541 9.20727C2.89965 9.39299 2.75229 9.61349 2.65175 9.85617C2.55121 10.0989 2.49947 10.359 2.49947 10.6216C2.49947 10.8843 2.55121 11.1444 2.65175 11.3871C2.75229 11.6298 2.89965 11.8503 3.08541 12.036L3.42166 12.3716L1.64604 14.1466C1.59958 14.1931 1.56273 14.2482 1.53759 14.3089C1.51245 14.3696 1.49951 14.4347 1.49951 14.5004C1.49951 14.5661 1.51245 14.6311 1.53759 14.6918C1.56273 14.7525 1.59958 14.8077 1.64604 14.8541C1.73986 14.948 1.86711 15.0007 1.99979 15.0007C2.06549 15.0007 2.13054 14.9877 2.19124 14.9626C2.25193 14.9374 2.30708 14.9006 2.35354 14.8541L4.12854 13.0785L4.46416 13.4148C4.64989 13.6005 4.87039 13.7479 5.11307 13.8484C5.35575 13.949 5.61586 14.0007 5.87854 14.0007C6.14122 14.0007 6.40133 13.949 6.64401 13.8484C6.88669 13.7479 7.10719 13.6005 7.29291 13.4148L8.74979 11.9573L9.14604 12.3541C9.19249 12.4006 9.24764 12.4374 9.30834 12.4626C9.36904 12.4877 9.43409 12.5007 9.49979 12.5007C9.56549 12.5007 9.63054 12.4877 9.69124 12.4626C9.75194 12.4374 9.80709 12.4006 9.85354 12.3541C9.9 12.3077 9.93684 12.2525 9.96199 12.1918C9.98713 12.1311 10.0001 12.0661 10.0001 12.0004C10.0001 11.9347 9.98713 11.8696 9.96199 11.8089C9.93684 11.7482 9.9 11.6931 9.85354 11.6466L8.70666 10.5004L9.85354 9.35414C9.90003 9.30771 9.93691 9.25256 9.96207 9.19186C9.98723 9.13116 10.0002 9.0661 10.0002 9.00039C10.0002 8.93469 9.98723 8.86962 9.96207 8.80892C9.93691 8.74822 9.90003 8.69308 9.85354 8.64664ZM6.58541 12.7091C6.3979 12.8965 6.14364 13.0018 5.87854 13.0018C5.61344 13.0018 5.35918 12.8965 5.17166 12.7091L3.79291 11.3285C3.60552 11.141 3.50025 10.8867 3.50025 10.6216C3.50025 10.3565 3.60552 10.1023 3.79291 9.91477L5.24979 8.45727L8.04291 11.2504L6.58541 12.7091ZM15.3535 1.14664C15.3071 1.10016 15.252 1.06328 15.1913 1.03811C15.1306 1.01295 15.0655 1 14.9998 1C14.9341 1 14.869 1.01295 14.8083 1.03811C14.7476 1.06328 14.6925 1.10016 14.646 1.14664L12.871 2.92227L12.5354 2.58602C12.1599 2.21161 11.6513 2.00136 11.121 2.00136C10.5908 2.00136 10.0822 2.21161 9.70667 2.58602L8.24979 4.04352L7.85354 3.64664C7.75972 3.55282 7.63247 3.50012 7.49979 3.50012C7.36711 3.50012 7.23986 3.55282 7.14604 3.64664C7.05222 3.74046 6.99951 3.86771 6.99951 4.00039C6.99951 4.13308 7.05222 4.26032 7.14604 4.35414L12.146 9.35414C12.1925 9.4006 12.2476 9.43745 12.3083 9.46259C12.369 9.48773 12.4341 9.50067 12.4998 9.50067C12.5655 9.50067 12.6305 9.48773 12.6912 9.46259C12.7519 9.43745 12.8071 9.4006 12.8535 9.35414C12.9 9.30769 12.9368 9.25254 12.962 9.19184C12.9871 9.13114 13.0001 9.06609 13.0001 9.00039C13.0001 8.9347 12.9871 8.86964 12.962 8.80895C12.9368 8.74825 12.9 8.6931 12.8535 8.64664L12.4567 8.25039L13.9142 6.79352C14.0999 6.6078 14.2473 6.3873 14.3478 6.14462C14.4484 5.90193 14.5001 5.64183 14.5001 5.37914C14.5001 5.11646 14.4484 4.85635 14.3478 4.61367C14.2473 4.37099 14.0999 4.15049 13.9142 3.96477L13.5779 3.62914L15.3535 1.85414C15.4 1.80771 15.4369 1.75256 15.4621 1.69186C15.4872 1.63116 15.5002 1.5661 15.5002 1.50039C15.5002 1.43469 15.4872 1.36962 15.4621 1.30892C15.4369 1.24822 15.4 1.19308 15.3535 1.14664ZM13.2067 6.08414L11.7498 7.54352L8.95666 4.75039L10.4142 3.29352C10.6017 3.10612 10.8559 3.00086 11.121 3.00086C11.3861 3.00086 11.6404 3.10612 11.8279 3.29352L13.2067 4.66852C13.3 4.76144 13.3741 4.87188 13.4246 4.99351C13.4752 5.11514 13.5012 5.24555 13.5012 5.37727C13.5012 5.50898 13.4752 5.6394 13.4246 5.76103C13.3741 5.88266 13.3 5.9931 13.2067 6.08602V6.08414Z" fill="white"/>
</svg>
