<svg xmlns="http://www.w3.org/2000/svg" width="20" height="20" viewBox="0 0 20 20" fill="none">
  <path d="M10.7342 5.84709L14.7117 6.90683M9.88166 9.01113L11.8703 9.54096M9.98058 14.972L10.7761 15.184C13.026 15.7834 14.151 16.0831 15.0372 15.5744C15.9235 15.0655 16.225 13.9469 16.8278 11.7096L17.6804 8.54563C18.2833 6.30833 18.5847 5.18969 18.0731 4.30843C17.5614 3.42716 16.4364 3.12742 14.1864 2.52794L13.3909 2.31599C11.141 1.71651 10.016 1.41678 9.12975 1.92558C8.24346 2.43438 7.94202 3.55302 7.33915 5.7903L6.48655 8.95429C5.88366 11.1915 5.58223 12.3102 6.09391 13.1915C6.6056 14.0728 7.73059 14.3725 9.98058 14.972Z" stroke="white" stroke-width="1.5" stroke-linecap="round"/>
  <path d="M9.99984 17.4553L9.20626 17.6714C6.96153 18.2826 5.83919 18.5883 4.955 18.0694C4.07081 17.5507 3.77008 16.4101 3.16861 14.1289L2.31802 10.9029C1.71656 8.62169 1.41582 7.48112 1.92631 6.58256C2.3679 5.80529 3.33317 5.83359 4.58317 5.83349" stroke="white" stroke-width="1.5" stroke-linecap="round"/>
</svg>