<svg width="10" height="6" viewBox="0 0 10 6" fill="none" xmlns="http://www.w3.org/2000/svg">
<path d="M1.24991 0.66712H8.74991C8.82585 0.667311 8.90028 0.684065 8.96519 0.71558C9.03011 0.747094 9.08306 0.792175 9.11833 0.845971C9.1536 0.899767 9.16987 0.96024 9.16537 1.02088C9.16088 1.08152 9.1358 1.14003 9.09283 1.19012L5.34283 5.52345C5.18741 5.70312 4.81325 5.70312 4.65741 5.52345L0.907414 1.19012C0.864007 1.14014 0.838553 1.0816 0.833816 1.02086C0.829079 0.960113 0.84524 0.899494 0.880544 0.845584C0.915849 0.791675 0.968945 0.746536 1.03407 0.715072C1.09919 0.683609 1.17384 0.667025 1.24991 0.66712Z" fill="#778698"/>
</svg>
