<svg xmlns="http://www.w3.org/2000/svg" width="16" height="16" viewBox="0 0 16 16" fill="none">
  <path d="M10.3333 8.66667C12.7266 8.66667 14.6667 8.06971 14.6667 7.33333C14.6667 6.59695 12.7266 6 10.3333 6C7.9401 6 6 6.59695 6 7.33333C6 8.06971 7.9401 8.66667 10.3333 8.66667Z" stroke="#424C57"/>
  <path d="M14.6667 10.3333C14.6667 11.0697 12.7266 11.6667 10.3333 11.6667C7.94007 11.6667 6 11.0697 6 10.3333" stroke="#424C57"/>
  <path d="M14.6667 7.33333V13.2C14.6667 14.01 12.7266 14.6667 10.3333 14.6667C7.94007 14.6667 6 14.01 6 13.2V7.33333" stroke="#424C57"/>
  <path d="M5.66665 4C8.05988 4 9.99998 3.40305 9.99998 2.66667C9.99998 1.93029 8.05988 1.33333 5.66665 1.33333C3.27341 1.33333 1.33331 1.93029 1.33331 2.66667C1.33331 3.40305 3.27341 4 5.66665 4Z" stroke="#424C57"/>
  <path d="M3.99998 7.33333C2.73877 7.17987 1.57992 6.783 1.33331 6M3.99998 10.6667C2.73877 10.5132 1.57992 10.1163 1.33331 9.33333" stroke="#424C57" stroke-linecap="round"/>
  <path d="M3.99998 14C2.73877 13.8465 1.57992 13.4497 1.33331 12.6667V2.66667" stroke="#424C57" stroke-linecap="round"/>
  <path d="M10 4V2.66667" stroke="#424C57" stroke-linecap="round"/>
</svg>