<svg xmlns="http://www.w3.org/2000/svg" width="13" height="12" viewBox="0 0 13 12" fill="none">
<path d="M12.2187 2.96254L9.53791 0.281244C9.44876 0.19208 9.34292 0.12135 9.22643 0.0730938C9.10995 0.0248374 8.98509 0 8.859 0C8.73291 0 8.60806 0.0248374 8.49157 0.0730938C8.37508 0.12135 8.26924 0.19208 8.18009 0.281244L0.781408 7.68016C0.691875 7.76898 0.62089 7.87471 0.572581 7.9912C0.524272 8.10769 0.499602 8.23262 0.500005 8.35873V11.04C0.500005 11.2946 0.601149 11.5388 0.781186 11.7188C0.961223 11.8989 1.20541 12 1.46002 12H4.14145C4.26756 12.0004 4.3925 11.9757 4.509 11.9274C4.6255 11.8791 4.73123 11.8081 4.82006 11.7186L12.2187 4.32029C12.3079 4.23115 12.3786 4.12531 12.4269 4.00883C12.4752 3.89235 12.5 3.7675 12.5 3.64142C12.5 3.51533 12.4752 3.39049 12.4269 3.274C12.3786 3.15752 12.3079 3.05169 12.2187 2.96254ZM1.65862 8.16014L6.74008 3.07894L7.74149 4.0803L2.66003 9.1609L1.65862 8.16014ZM1.46002 9.3187L3.18144 11.04H1.46002V9.3187ZM4.34005 10.8414L3.33864 9.84008L8.4201 4.75887L9.42151 5.76023L4.34005 10.8414ZM10.1001 5.08166L7.41869 2.40036L8.8587 0.960418L11.5401 3.64112L10.1001 5.08166Z" fill="white"/>
</svg>