<svg xmlns="http://www.w3.org/2000/svg" width="17" height="16" viewBox="0 0 17 16" fill="none">
<path d="M8.0999 6.3C7.43714 6.3 6.8999 6.7701 6.8999 7.35002C6.8999 7.92989 7.43714 8.40001 8.0999 8.40001C8.7626 8.40001 9.2999 8.87013 9.2999 9.45001C9.2999 10.0299 8.7626 10.5 8.0999 10.5M8.0999 6.3C8.62238 6.3 9.06686 6.59218 9.23156 7.00002M8.0999 6.3V5.60001M8.0999 10.5C7.57736 10.5 7.13288 10.2078 6.96818 9.80001M8.0999 10.5V11.2" stroke="#2F3137" stroke-linecap="round"/>
<path d="M9.17378 1.60001C9.17378 1.60001 8.96083 1.60001 8.5001 1.60001C5.48311 1.60001 3.97462 1.60001 3.03735 2.53727C2.1001 3.47452 2.1001 4.98302 2.1001 8.00001C2.1001 11.017 2.1001 12.5255 3.03735 13.4628C3.97462 14.4 5.48311 14.4 8.5001 14.4C11.5171 14.4 13.0256 14.4 13.9629 13.4628C14.9001 12.5255 14.9001 11.017 14.9001 8.00001C14.9001 7.53928 14.9001 7.32633 14.9001 7.32633" stroke="#2F3137" stroke-linecap="round"/>
<path d="M14.9002 1.60001L12.2277 4.27405M11.7002 1.93393L11.7758 3.91249C11.7758 4.37882 12.0543 4.66937 12.5615 4.70602L14.5609 4.80001" stroke="#2F3137" stroke-linecap="round" stroke-linejoin="round"/>
</svg>