<svg width="18" height="18" viewBox="0 0 18 18" fill="none" xmlns="http://www.w3.org/2000/svg">
<path d="M16.158 12.5601V14.3361C16.158 15.8073 15.0269 17 13.6317 17H12.7896" stroke="#C8CFDA" stroke-linecap="round" stroke-linejoin="round"/>
<path d="M1 6.3441V3.68011C1 2.20882 2.13107 1.01611 3.52632 1.01611H5.21053" stroke="#C8CFDA" stroke-linecap="round" stroke-linejoin="round"/>
<path d="M1 16.1119L1.97347 16.6252C2.44092 16.8716 2.95636 16.9999 3.47897 16.9999H9C9.69762 16.9999 10.2632 16.4036 10.2632 15.6679V15.6679C10.2632 14.9323 9.69762 14.3359 9 14.3359H5.63158" stroke="#C8CFDA" stroke-linecap="round" stroke-linejoin="round"/>
<path d="M1 9.896H3.45335C3.81776 9.896 4.17234 10.0206 4.46387 10.2512L6.34789 11.7412C6.66492 11.9919 6.86317 12.3754 6.89127 12.7922C6.91936 13.2091 6.77453 13.6183 6.49432 13.9138V13.9138C6.01327 14.421 5.25169 14.4781 4.70745 14.0477L3.52632 13.1135" stroke="#C8CFDA" stroke-linecap="round" stroke-linejoin="round"/>
<path d="M16.1579 6.99398V8.10398C16.1579 9.08484 15.4038 9.87998 14.4737 9.87998H9.42103C8.49086 9.87998 7.73682 9.08484 7.73682 8.10398V2.776C7.73682 1.79514 8.49086 1 9.42103 1H14.4737C15.4038 1 16.1579 1.79514 16.1579 2.776V3.88599" stroke="#C8CFDA" stroke-linecap="round" stroke-linejoin="round"/>
<path fill-rule="evenodd" clip-rule="evenodd" d="M15.5264 3.88599H16.5791C16.8116 3.88599 17.0001 4.08477 17.0001 4.32999V6.54998C17.0001 6.79519 16.8116 6.99398 16.5791 6.99398H15.5264C14.7125 6.99398 14.0527 6.29823 14.0527 5.43998V5.43998C14.0527 4.58173 14.7125 3.88599 15.5264 3.88599Z" stroke="#C8CFDA" stroke-linecap="round" stroke-linejoin="round"/>
</svg>
