<svg xmlns="http://www.w3.org/2000/svg" width="12" height="12" viewBox="0 0 12 12" fill="none">
  <g clip-path="url(#clip0_1443_11496)">
    <path d="M11.1318 10.561L8.60694 8.03662C9.33874 7.15805 9.70366 6.03117 9.62577 4.89041C9.54789 3.74964 9.0332 2.68281 8.18878 1.91186C7.34436 1.1409 6.23522 0.725169 5.0921 0.751148C3.94897 0.777128 2.85986 1.24282 2.05134 2.05134C1.24282 2.85986 0.777128 3.94897 0.751148 5.0921C0.725169 6.23522 1.1409 7.34436 1.91186 8.18878C2.68281 9.0332 3.74964 9.54789 4.89041 9.62577C6.03117 9.70366 7.15805 9.33874 8.03662 8.60694L10.561 11.1318C10.5984 11.1693 10.6429 11.199 10.6919 11.2193C10.7409 11.2396 10.7934 11.25 10.8464 11.25C10.8994 11.25 10.9519 11.2396 11.0008 11.2193C11.0498 11.199 11.0943 11.1693 11.1318 11.1318C11.1693 11.0943 11.199 11.0498 11.2193 11.0008C11.2396 10.9519 11.25 10.8994 11.25 10.8464C11.25 10.7934 11.2396 10.7409 11.2193 10.6919C11.199 10.6429 11.1693 10.5984 11.1318 10.561ZM1.56796 5.19864C1.56796 4.48056 1.7809 3.77861 2.17984 3.18155C2.57879 2.58448 3.14582 2.11913 3.80924 1.84433C4.47266 1.56953 5.20267 1.49764 5.90695 1.63773C6.61124 1.77782 7.25816 2.12361 7.76592 2.63136C8.27368 3.13912 8.61947 3.78605 8.75956 4.49033C8.89965 5.19462 8.82775 5.92462 8.55295 6.58804C8.27816 7.25146 7.8128 7.8185 7.21574 8.21744C6.61868 8.61639 5.91672 8.82932 5.19864 8.82932C4.23605 8.82825 3.3132 8.4454 2.63254 7.76474C1.95189 7.08409 1.56903 6.16123 1.56796 5.19864Z" fill="#778698"/>
  </g>
  <defs>
    <clipPath id="clip0_1443_11496">
      <rect width="12" height="12" fill="white"/>
    </clipPath>
  </defs>
</svg>