<svg xmlns="http://www.w3.org/2000/svg" width="20" height="20" viewBox="0 0 20 20" fill="none">
  <path d="M9.99979 6.25028C9.25811 6.25028 8.53309 6.47021 7.9164 6.88227C7.29972 7.29432 6.81907 7.87999 6.53524 8.56522C6.25141 9.25044 6.17715 10.0044 6.32185 10.7319C6.46654 11.4593 6.82369 12.1275 7.34814 12.6519C7.87259 13.1764 8.54077 13.5335 9.2682 13.6782C9.99563 13.8229 10.7496 13.7487 11.4349 13.4648C12.1201 13.181 12.7057 12.7004 13.1178 12.0837C13.5299 11.467 13.7498 10.742 13.7498 10.0003C13.7488 9.00604 13.3533 8.05281 12.6503 7.34977C11.9473 6.64673 10.994 6.25131 9.99979 6.25028ZM9.99979 12.5003C9.50534 12.5003 9.02199 12.3537 8.61087 12.079C8.19974 11.8042 7.87931 11.4138 7.69009 10.957C7.50087 10.5002 7.45136 9.99751 7.54783 9.51255C7.64429 9.0276 7.88239 8.58214 8.23202 8.23251C8.58166 7.88288 9.02711 7.64478 9.51207 7.54832C9.99702 7.45185 10.4997 7.50136 10.9565 7.69058C11.4133 7.8798 11.8038 8.20023 12.0785 8.61135C12.3532 9.02248 12.4998 9.50583 12.4998 10.0003C12.4998 10.6633 12.2364 11.2992 11.7676 11.768C11.2987 12.2369 10.6628 12.5003 9.99979 12.5003ZM16.8748 10.169C16.8779 10.0565 16.8779 9.94403 16.8748 9.83153L18.0404 8.37528C18.1015 8.29882 18.1438 8.20907 18.1639 8.11327C18.184 8.01747 18.1813 7.91829 18.156 7.82372C17.965 7.10544 17.6791 6.41579 17.306 5.77294C17.2572 5.68881 17.1894 5.61725 17.108 5.56394C17.0266 5.51064 16.9339 5.47707 16.8373 5.4659L14.9842 5.25965C14.9071 5.1784 14.829 5.10028 14.7498 5.02528L14.531 3.16747C14.5198 3.07076 14.4861 2.97801 14.4327 2.89663C14.3792 2.81525 14.3075 2.74748 14.2232 2.69872C13.5801 2.32633 12.8905 2.04078 12.1724 1.8495C12.0778 1.82434 11.9786 1.82177 11.8828 1.84199C11.787 1.86221 11.6973 1.90465 11.6209 1.9659L10.1685 3.12528H9.83104L8.37479 1.962C8.29833 1.90088 8.20859 1.85858 8.11278 1.83849C8.01698 1.81841 7.9178 1.82111 7.82323 1.84637C7.10506 2.0378 6.41546 2.32363 5.77245 2.69637C5.68832 2.74522 5.61676 2.81303 5.56346 2.89441C5.51015 2.97579 5.47658 3.06849 5.46542 3.16512L5.25917 5.02137C5.17792 5.09898 5.09979 5.1771 5.02479 5.25575L3.16698 5.46903C3.07027 5.48028 2.97753 5.51397 2.89614 5.56741C2.81476 5.62085 2.74699 5.69257 2.69823 5.77684C2.32584 6.41994 2.04029 7.10953 1.84901 7.82762C1.82385 7.92225 1.82128 8.02147 1.8415 8.11727C1.86172 8.21308 1.90416 8.30279 1.96542 8.37919L3.12479 9.83153V10.169L1.96151 11.6253C1.90039 11.7017 1.85809 11.7915 1.838 11.8873C1.81792 11.9831 1.82062 12.0823 1.84589 12.1768C2.03697 12.8951 2.32281 13.5848 2.69589 14.2276C2.74473 14.3118 2.81255 14.3833 2.89392 14.4366C2.9753 14.4899 3.068 14.5235 3.16464 14.5347L5.01776 14.7409C5.09536 14.8222 5.17349 14.9003 5.25214 14.9753L5.46854 16.8331C5.47979 16.9298 5.51348 17.0225 5.56692 17.1039C5.62037 17.1853 5.69208 17.2531 5.77635 17.3018C6.41945 17.6742 7.10904 17.9598 7.82714 18.1511C7.92176 18.1762 8.02098 18.1788 8.11679 18.1586C8.21259 18.1384 8.30231 18.0959 8.3787 18.0347L9.83104 16.8753C9.94354 16.8784 10.056 16.8784 10.1685 16.8753L11.6248 18.0409C11.7013 18.102 11.791 18.1443 11.8868 18.1644C11.9826 18.1845 12.0818 18.1818 12.1764 18.1565C12.8946 17.9654 13.5843 17.6796 14.2271 17.3065C14.3113 17.2577 14.3828 17.1899 14.4361 17.1085C14.4894 17.0271 14.523 16.9344 14.5342 16.8378L14.7404 14.9847C14.8217 14.9076 14.8998 14.8294 14.9748 14.7503L16.8326 14.5315C16.9293 14.5203 17.0221 14.4866 17.1034 14.4331C17.1848 14.3797 17.2526 14.308 17.3014 14.2237C17.6737 13.5806 17.9593 12.891 18.1506 12.1729C18.1757 12.0783 18.1783 11.9791 18.1581 11.8833C18.1379 11.7875 18.0954 11.6978 18.0342 11.6214L16.8748 10.169ZM15.617 9.66122C15.6303 9.88706 15.6303 10.1135 15.617 10.3393C15.6077 10.494 15.6561 10.6465 15.7529 10.7675L16.8615 12.1526C16.7343 12.5569 16.5714 12.9491 16.3748 13.3245L14.6092 13.5245C14.4554 13.5416 14.3134 13.6151 14.2107 13.7307C14.0603 13.8999 13.9002 14.0601 13.731 14.2104C13.6153 14.3131 13.5419 14.4551 13.5248 14.6089L13.3287 16.3729C12.9533 16.5697 12.5611 16.7325 12.1568 16.8597L10.7709 15.7511C10.66 15.6624 10.5222 15.6142 10.3803 15.6143H10.3428C10.1169 15.6276 9.89048 15.6276 9.66464 15.6143C9.51001 15.605 9.35744 15.6535 9.23651 15.7503L7.84745 16.8597C7.44318 16.7324 7.05101 16.5696 6.67557 16.3729L6.47557 14.6097C6.4585 14.4559 6.38502 14.3139 6.26932 14.2112C6.10019 14.0608 5.94002 13.9007 5.78964 13.7315C5.68693 13.6158 5.54496 13.5423 5.3912 13.5253L3.62714 13.3284C3.43041 12.953 3.26753 12.5608 3.14042 12.1565L4.24901 10.7706C4.34581 10.6497 4.39426 10.4971 4.38495 10.3425C4.37167 10.1166 4.37167 9.89019 4.38495 9.66434C4.39426 9.50972 4.34581 9.35715 4.24901 9.23622L3.14042 7.84794C3.26762 7.44367 3.4305 7.0515 3.62714 6.67606L5.39042 6.47606C5.54418 6.45899 5.68615 6.3855 5.78885 6.26981C5.93924 6.10068 6.09941 5.94051 6.26854 5.79012C6.3847 5.68735 6.45849 5.54506 6.47557 5.3909L6.67167 3.62762C7.04706 3.4309 7.43924 3.26801 7.84354 3.1409L9.22948 4.2495C9.35041 4.3463 9.50298 4.39474 9.6576 4.38544C9.88345 4.37216 10.1099 4.37216 10.3357 4.38544C10.4904 4.39474 10.6429 4.3463 10.7639 4.2495L12.1521 3.1409C12.5564 3.26811 12.9486 3.43099 13.324 3.62762L13.524 5.3909C13.5411 5.54467 13.6146 5.68663 13.7303 5.78934C13.8994 5.93973 14.0596 6.0999 14.2099 6.26903C14.3127 6.38472 14.4546 6.45821 14.6084 6.47528L16.3724 6.67137C16.5692 7.04677 16.7321 7.43894 16.8592 7.84325L15.7506 9.22919C15.6528 9.35114 15.6043 9.50528 15.6146 9.66122H15.617Z" fill="#778698"/>
</svg>