<svg width="15" height="15" viewBox="0 0 15 15" fill="none" xmlns="http://www.w3.org/2000/svg">
<path d="M12.5 8.61041C12.5012 8.81428 12.4393 9.01352 12.3227 9.18074C12.2061 9.34795 12.0405 9.47492 11.8487 9.54416L8.62498 10.7354L7.43748 13.9617C7.36716 14.1527 7.23992 14.3176 7.07295 14.434C6.90598 14.5505 6.7073 14.613 6.50373 14.613C6.30015 14.613 6.10147 14.5505 5.9345 14.434C5.76753 14.3176 5.6403 14.1527 5.56998 13.9617L4.37498 10.7354L1.14873 9.54791C0.957683 9.47759 0.792806 9.35036 0.676344 9.18339C0.559881 9.01642 0.497437 8.81774 0.497437 8.61416C0.497437 8.41059 0.559881 8.21191 0.676344 8.04494C0.792806 7.87797 0.957683 7.75073 1.14873 7.68041L4.37498 6.48541L5.56248 3.25916C5.6328 3.06812 5.76003 2.90324 5.927 2.78678C6.09397 2.67032 6.29265 2.60787 6.49623 2.60787C6.6998 2.60787 6.89848 2.67032 7.06545 2.78678C7.23242 2.90324 7.35965 3.06812 7.42998 3.25916L8.62498 6.48541L11.8512 7.67291C12.0431 7.74278 12.2086 7.8705 12.3248 8.03842C12.441 8.20635 12.5022 8.40621 12.5 8.61041ZM8.99998 2.61041H9.99998V3.61041C9.99998 3.74302 10.0527 3.8702 10.1464 3.96397C10.2402 4.05773 10.3674 4.11041 10.5 4.11041C10.6326 4.11041 10.7598 4.05773 10.8535 3.96397C10.9473 3.8702 11 3.74302 11 3.61041V2.61041H12C12.1326 2.61041 12.2598 2.55773 12.3535 2.46397C12.4473 2.3702 12.5 2.24302 12.5 2.11041C12.5 1.9778 12.4473 1.85063 12.3535 1.75686C12.2598 1.66309 12.1326 1.61041 12 1.61041H11V0.610413C11 0.477804 10.9473 0.350627 10.8535 0.256859C10.7598 0.163091 10.6326 0.110413 10.5 0.110413C10.3674 0.110413 10.2402 0.163091 10.1464 0.256859C10.0527 0.350627 9.99998 0.477804 9.99998 0.610413V1.61041H8.99998C8.86737 1.61041 8.74019 1.66309 8.64642 1.75686C8.55266 1.85063 8.49998 1.9778 8.49998 2.11041C8.49998 2.24302 8.55266 2.3702 8.64642 2.46397C8.74019 2.55773 8.86737 2.61041 8.99998 2.61041ZM14.5 4.61041H14V4.11041C14 3.9778 13.9473 3.85063 13.8535 3.75686C13.7598 3.66309 13.6326 3.61041 13.5 3.61041C13.3674 3.61041 13.2402 3.66309 13.1464 3.75686C13.0527 3.85063 13 3.9778 13 4.11041V4.61041H12.5C12.3674 4.61041 12.2402 4.66309 12.1464 4.75686C12.0527 4.85063 12 4.9778 12 5.11041C12 5.24302 12.0527 5.3702 12.1464 5.46397C12.2402 5.55773 12.3674 5.61041 12.5 5.61041H13V6.11041C13 6.24302 13.0527 6.3702 13.1464 6.46397C13.2402 6.55773 13.3674 6.61041 13.5 6.61041C13.6326 6.61041 13.7598 6.55773 13.8535 6.46397C13.9473 6.3702 14 6.24302 14 6.11041V5.61041H14.5C14.6326 5.61041 14.7598 5.55773 14.8535 5.46397C14.9473 5.3702 15 5.24302 15 5.11041C15 4.9778 14.9473 4.85063 14.8535 4.75686C14.7598 4.66309 14.6326 4.61041 14.5 4.61041Z" fill="#C8CFDA"/>
</svg>
