<svg xmlns="http://www.w3.org/2000/svg" width="13" height="12" viewBox="0 0 13 12" fill="none">
  <g clip-path="url(#clip0_498_33798)">
    <path d="M4.68052 0.39496C3.48153 0.8109 2.44753 1.60037 1.73039 2.6474C1.01324 3.69443 0.650763 4.94385 0.696186 6.21212C0.741608 7.48039 1.19254 8.70066 1.98275 9.69371C2.77296 10.6868 3.86079 11.4002 5.08646 11.7293C6.08014 11.9857 7.12122 11.997 8.12021 11.7621C9.02519 11.5589 9.86188 11.1241 10.5483 10.5003C11.2628 9.83122 11.7814 8.9801 12.0483 8.0384C12.3384 7.01432 12.39 5.9374 12.1993 4.89027H6.61927V7.20496H9.85083C9.78625 7.57414 9.64785 7.92649 9.44391 8.24093C9.23998 8.55537 8.9747 8.82543 8.66396 9.03496C8.2694 9.29609 7.82455 9.47173 7.35802 9.55059C6.89016 9.6376 6.41026 9.6376 5.9424 9.55059C5.46816 9.45265 5.01956 9.25692 4.62521 8.9759C3.9916 8.52739 3.51584 7.8902 3.26583 7.15527C3.01167 6.40657 3.01167 5.59491 3.26583 4.84621C3.4438 4.32141 3.73799 3.84359 4.12646 3.4484C4.57101 2.98785 5.13383 2.65864 5.75317 2.49691C6.3725 2.33517 7.02442 2.34715 7.6374 2.53152C8.11627 2.67845 8.55417 2.93528 8.91615 3.28152C9.28052 2.91902 9.64427 2.55559 10.0074 2.19121C10.1949 1.99527 10.3993 1.80871 10.584 1.60809C10.0313 1.09388 9.3827 0.693746 8.67521 0.430585C7.38681 -0.0372366 5.97706 -0.0498089 4.68052 0.39496Z" fill="white"/>
    <path d="M4.68035 0.394439C5.97679 -0.0506322 7.38653 -0.0383908 8.67504 0.429127C9.38266 0.694075 10.031 1.09614 10.5829 1.61225C10.3954 1.81288 10.1975 2.00038 10.0063 2.19538C9.64254 2.5585 9.2791 2.92038 8.91598 3.281C8.554 2.93476 8.1161 2.67793 7.63723 2.531C7.02445 2.34598 6.37256 2.33331 5.75306 2.49439C5.13356 2.65546 4.57039 2.98406 4.12535 3.44413C3.73688 3.83932 3.44269 4.31714 3.26473 4.84194L1.32129 3.33725C2.01692 1.95778 3.22137 0.902587 4.68035 0.394439Z" fill="#E33629"/>
    <path d="M0.8057 4.82852C0.910081 4.3108 1.08351 3.80945 1.32133 3.33789L3.26476 4.84633C3.0106 5.59503 3.0106 6.40669 3.26476 7.15539C2.61726 7.65539 1.96945 8.15789 1.32133 8.66289C0.726154 7.47819 0.544637 6.12836 0.8057 4.82852Z" fill="#F8BD00"/>
    <path d="M6.61907 4.88867H12.1991C12.3898 5.9358 12.3382 7.01272 12.0481 8.0368C11.7812 8.9785 11.2626 9.82962 10.5481 10.4987C9.92094 10.0093 9.29094 9.52367 8.66376 9.0343C8.9747 8.82456 9.2401 8.5542 9.44405 8.23942C9.64799 7.92464 9.78628 7.57193 9.85063 7.20242H6.61907C6.61813 6.4318 6.61907 5.66023 6.61907 4.88867Z" fill="#587DBD"/>
    <path d="M1.32031 8.66277C1.96844 8.16277 2.61625 7.66027 3.26375 7.15527C3.51426 7.89046 3.99069 8.52767 4.625 8.9759C5.02058 9.25562 5.47015 9.44975 5.945 9.5459C6.41286 9.63292 6.89276 9.63292 7.36063 9.5459C7.82715 9.46704 8.272 9.2914 8.66656 9.03027C9.29375 9.51965 9.92375 10.0053 10.5509 10.4946C9.86458 11.1188 9.02789 11.5539 8.12281 11.7575C7.12382 11.9923 6.08274 11.9811 5.08906 11.7246C4.30316 11.5148 3.56907 11.1449 2.93281 10.6381C2.25943 10.1034 1.70941 9.42957 1.32031 8.66277Z" fill="#319F43"/>
  </g>
  <defs>
    <clipPath id="clip0_498_33798">
      <rect width="12" height="12" fill="white" transform="translate(0.5)"/>
    </clipPath>
  </defs>
</svg>