<svg xmlns="http://www.w3.org/2000/svg" width="21" height="20" viewBox="0 0 21 20" fill="none">
  <path d="M10.5 1.875C8.89303 1.875 7.32214 2.35152 5.986 3.24431C4.64985 4.1371 3.60844 5.40605 2.99348 6.8907C2.37852 8.37535 2.21762 10.009 2.53112 11.5851C2.84463 13.1612 3.61846 14.6089 4.75476 15.7452C5.89106 16.8815 7.3388 17.6554 8.9149 17.9689C10.491 18.2824 12.1247 18.1215 13.6093 17.5065C15.094 16.8916 16.3629 15.8502 17.2557 14.514C18.1485 13.1779 18.625 11.607 18.625 10C18.6227 7.84581 17.766 5.78051 16.2427 4.25727C14.7195 2.73403 12.6542 1.87727 10.5 1.875ZM6.2875 15.4297C6.73964 14.7226 7.36251 14.1406 8.09869 13.7375C8.83488 13.3345 9.66069 13.1232 10.5 13.1232C11.3393 13.1232 12.1651 13.3345 12.9013 13.7375C13.6375 14.1406 14.2604 14.7226 14.7125 15.4297C13.5081 16.3664 12.0258 16.8749 10.5 16.8749C8.9742 16.8749 7.49193 16.3664 6.2875 15.4297ZM8 9.375C8 8.88055 8.14663 8.3972 8.42133 7.98607C8.69603 7.57495 9.08648 7.25452 9.54329 7.0653C10.0001 6.87608 10.5028 6.82657 10.9877 6.92304C11.4727 7.0195 11.9181 7.2576 12.2678 7.60723C12.6174 7.95686 12.8555 8.40232 12.952 8.88727C13.0484 9.37223 12.9989 9.87489 12.8097 10.3317C12.6205 10.7885 12.3001 11.179 11.8889 11.4537C11.4778 11.7284 10.9945 11.875 10.5 11.875C9.83696 11.875 9.20108 11.6116 8.73224 11.1428C8.2634 10.6739 8 10.038 8 9.375ZM15.6375 14.5633C14.9404 13.5532 13.9603 12.7717 12.8203 12.3172C13.4327 11.8349 13.8795 11.1737 14.0987 10.4257C14.3179 9.67766 14.2985 8.87992 14.0433 8.1434C13.7881 7.40687 13.3097 6.76819 12.6746 6.31616C12.0396 5.86414 11.2795 5.62123 10.5 5.62123C9.72052 5.62123 8.9604 5.86414 8.32536 6.31616C7.69033 6.76819 7.21193 7.40687 6.95671 8.1434C6.70149 8.87992 6.68212 9.67766 6.90131 10.4257C7.12049 11.1737 7.56734 11.8349 8.17969 12.3172C7.0397 12.7717 6.05956 13.5532 5.3625 14.5633C4.4817 13.5728 3.906 12.3488 3.70473 11.0387C3.50346 9.72856 3.6852 8.3882 4.22806 7.17898C4.77093 5.96977 5.65178 4.94326 6.76454 4.22308C7.8773 3.50289 9.17452 3.11972 10.5 3.11972C11.8255 3.11972 13.1227 3.50289 14.2355 4.22308C15.3482 4.94326 16.2291 5.96977 16.7719 7.17898C17.3148 8.3882 17.4966 9.72856 17.2953 11.0387C17.094 12.3488 16.5183 13.5728 15.6375 14.5633Z" fill="#778698"/>
</svg>