<svg xmlns="http://www.w3.org/2000/svg" width="20" height="20" viewBox="0 0 20 20" fill="none">
  <path d="M10.9231 14C10.9231 14.1826 10.8689 14.361 10.7675 14.5128C10.6661 14.6646 10.5219 14.7829 10.3532 14.8528C10.1846 14.9227 9.99898 14.941 9.81992 14.9053C9.64086 14.8697 9.47638 14.7818 9.34729 14.6527C9.21819 14.5236 9.13028 14.3591 9.09466 14.1801C9.05904 14.001 9.07732 13.8154 9.14719 13.6468C9.21706 13.4781 9.33537 13.3339 9.48717 13.2325C9.63897 13.1311 9.81743 13.0769 10 13.0769C10.2448 13.0769 10.4796 13.1742 10.6527 13.3473C10.8258 13.5204 10.9231 13.7552 10.9231 14ZM10 5.69231C8.30308 5.69231 6.92308 6.93461 6.92308 8.46154V8.76923C6.92308 8.93244 6.98791 9.08896 7.10332 9.20437C7.21873 9.31978 7.37525 9.38461 7.53846 9.38461C7.70167 9.38461 7.8582 9.31978 7.97361 9.20437C8.08901 9.08896 8.15385 8.93244 8.15385 8.76923V8.46154C8.15385 7.61538 8.98231 6.92308 10 6.92308C11.0177 6.92308 11.8462 7.61538 11.8462 8.46154C11.8462 9.30769 11.0177 10 10 10C9.83679 10 9.68027 10.0648 9.56486 10.1802C9.44945 10.2956 9.38462 10.4522 9.38462 10.6154V11.2308C9.38462 11.394 9.44945 11.5505 9.56486 11.6659C9.68027 11.7813 9.83679 11.8462 10 11.8462C10.1632 11.8462 10.3197 11.7813 10.4351 11.6659C10.5506 11.5505 10.6154 11.394 10.6154 11.2308V11.1754C12.0185 10.9177 13.0769 9.79846 13.0769 8.46154C13.0769 6.93461 11.6969 5.69231 10 5.69231ZM18 10C18 11.5822 17.5308 13.129 16.6518 14.4446C15.7727 15.7602 14.5233 16.7855 13.0615 17.391C11.5997 17.9965 9.99113 18.155 8.43928 17.8463C6.88743 17.5376 5.46197 16.7757 4.34315 15.6569C3.22433 14.538 2.4624 13.1126 2.15372 11.5607C1.84504 10.0089 2.00347 8.40034 2.60897 6.93853C3.21447 5.47672 4.23985 4.22729 5.55544 3.34824C6.87103 2.46919 8.41775 2 10 2C12.121 2.00224 14.1546 2.84581 15.6544 4.34562C17.1542 5.84542 17.9978 7.87895 18 10ZM16.7692 10C16.7692 8.66117 16.3722 7.35241 15.6284 6.23922C14.8846 5.12602 13.8274 4.25839 12.5905 3.74605C11.3536 3.2337 9.99249 3.09965 8.67939 3.36084C7.36629 3.62203 6.16013 4.26674 5.21343 5.21343C4.26674 6.16012 3.62203 7.36629 3.36084 8.67939C3.09965 9.99249 3.2337 11.3536 3.74605 12.5905C4.2584 13.8274 5.12603 14.8846 6.23922 15.6284C7.35241 16.3722 8.66117 16.7692 10 16.7692C11.7947 16.7672 13.5153 16.0534 14.7843 14.7843C16.0534 13.5153 16.7672 11.7947 16.7692 10Z" fill="#778698"/>
</svg>