<svg xmlns="http://www.w3.org/2000/svg" width="13" height="14" viewBox="0 0 13 14" fill="none">
  <path d="M6.5 7C6.07975 7.00014 5.67358 7.15151 5.35574 7.42644C5.03789 7.70137 4.8296 8.08149 4.76892 8.49734C4.70825 8.91319 4.79925 9.33698 5.02529 9.69127C5.25133 10.0456 5.59731 10.3067 6 10.4269V11.5C6 11.6326 6.05268 11.7598 6.14645 11.8536C6.24021 11.9473 6.36739 12 6.5 12C6.63261 12 6.75979 11.9473 6.85355 11.8536C6.94732 11.7598 7 11.6326 7 11.5V10.4269C7.40269 10.3067 7.74867 10.0456 7.97471 9.69127C8.20075 9.33698 8.29175 8.91319 8.23108 8.49734C8.1704 8.08149 7.96211 7.70137 7.64426 7.42644C7.32642 7.15151 6.92025 7.00014 6.5 7ZM6.5 9.5C6.35166 9.5 6.20666 9.45601 6.08332 9.3736C5.95999 9.29119 5.86386 9.17406 5.80709 9.03701C5.75032 8.89997 5.73547 8.74917 5.76441 8.60368C5.79335 8.4582 5.86478 8.32456 5.96967 8.21967C6.07456 8.11478 6.2082 8.04335 6.35368 8.01441C6.49917 7.98547 6.64997 8.00033 6.78701 8.05709C6.92406 8.11386 7.04119 8.20999 7.1236 8.33332C7.20601 8.45666 7.25 8.60166 7.25 8.75C7.25 8.94891 7.17098 9.13968 7.03033 9.28033C6.88968 9.42098 6.69891 9.5 6.5 9.5ZM11.5 5H9.5V3.5C9.5 2.70435 9.18393 1.94129 8.62132 1.37868C8.05871 0.81607 7.29565 0.5 6.5 0.5C5.70435 0.5 4.94129 0.81607 4.37868 1.37868C3.81607 1.94129 3.5 2.70435 3.5 3.5V5H1.5C1.23478 5 0.98043 5.10536 0.792893 5.29289C0.605357 5.48043 0.5 5.73478 0.5 6V13C0.5 13.2652 0.605357 13.5196 0.792893 13.7071C0.98043 13.8946 1.23478 14 1.5 14H11.5C11.7652 14 12.0196 13.8946 12.2071 13.7071C12.3946 13.5196 12.5 13.2652 12.5 13V6C12.5 5.73478 12.3946 5.48043 12.2071 5.29289C12.0196 5.10536 11.7652 5 11.5 5ZM4.5 3.5C4.5 2.96957 4.71071 2.46086 5.08579 2.08579C5.46086 1.71071 5.96957 1.5 6.5 1.5C7.03043 1.5 7.53914 1.71071 7.91421 2.08579C8.28929 2.46086 8.5 2.96957 8.5 3.5V5H4.5V3.5ZM11.5 13H1.5V6H11.5V13Z" fill="#778698"/>
</svg>