<svg
                            xmlns="http://www.w3.org/2000/svg"
                            width="12"
                            height="10"
                            viewBox="0 0 12 10"
                            fill="none"
                        >
                            <path
                                d="M1.50004 2.08329H10.5C10.5912 2.08353 10.6805 2.10447 10.7584 2.14386C10.8363 2.18326 10.8998 2.23961 10.9421 2.30685C10.9845 2.3741 11.004 2.44969 10.9986 2.52549C10.9932 2.60129 10.9631 2.67443 10.9115 2.73704L6.41154 8.15371C6.22504 8.37829 5.77604 8.37829 5.58904 8.15371L1.08904 2.73704C1.03696 2.67456 1.00641 2.60139 1.00073 2.52546C0.995041 2.44953 1.01443 2.37376 1.0568 2.30637C1.09916 2.23898 1.16288 2.18256 1.24102 2.14323C1.31917 2.1039 1.40875 2.08317 1.50004 2.08329Z"
                                fill="#778698"
                            />
                        </svg>