<svg xmlns="http://www.w3.org/2000/svg" width="26" height="25" viewBox="0 0 26 25" fill="none">
  <path d="M23.7372 17.4438V19.9702C23.7372 22.063 22.0406 23.7596 19.9477 23.7596H18.6846" stroke="#CDB28B" stroke-width="2" stroke-linecap="round" stroke-linejoin="round"/>
  <path d="M1 8.60177V4.8123C1 2.71943 2.69661 1.02283 4.78947 1.02283H7.31579" stroke="#CDB28B" stroke-width="2" stroke-linecap="round" stroke-linejoin="round"/>
  <path d="M1 22.4965L2.46021 23.2266C3.16138 23.5772 3.93454 23.7597 4.71846 23.7597H13C14.0464 23.7597 14.8947 22.9114 14.8947 21.865V21.865C14.8947 20.8185 14.0464 19.9702 13 19.9702H7.94737" stroke="#F6F7F9" stroke-width="2" stroke-linecap="round" stroke-linejoin="round"/>
  <path d="M1 13.6544H4.68002C5.22664 13.6544 5.75851 13.8317 6.19581 14.1597L9.02184 16.2792C9.49739 16.6358 9.79476 17.1813 9.8369 17.7743C9.87904 18.3672 9.6618 18.9493 9.24147 19.3696V19.3696C8.5199 20.0912 7.37754 20.1723 6.56118 19.5601L4.78947 18.2313" stroke="#F6F7F9" stroke-width="2" stroke-linecap="round" stroke-linejoin="round"/>
  <path d="M23.737 9.52632V11.1053C23.737 12.5005 22.606 13.6316 21.2107 13.6316H13.6318C12.2365 13.6316 11.1055 12.5005 11.1055 11.1053V3.52632C11.1055 2.13107 12.2365 1 13.6318 1H21.2107C22.606 1 23.737 2.13107 23.737 3.52632V5.10526" stroke="#F6F7F9" stroke-width="2" stroke-linecap="round" stroke-linejoin="round"/>
  <path fill-rule="evenodd" clip-rule="evenodd" d="M22.7896 5.10522H24.3686C24.7174 5.10522 25.0002 5.38799 25.0002 5.7368V8.8947C25.0002 9.24351 24.7174 9.52628 24.3686 9.52628H22.7896C21.5688 9.52628 20.5791 8.53659 20.5791 7.31575C20.5791 6.09491 21.5688 5.10522 22.7896 5.10522Z" fill="#F6F7F9" stroke="#F6F7F9" stroke-width="2" stroke-linecap="round" stroke-linejoin="round"/>
</svg>