<svg xmlns="http://www.w3.org/2000/svg" width="26" height="25" viewBox="0 0 26 25" fill="none">
  <path d="M23.7368 17.4438V19.9702C23.7368 22.063 22.0402 23.7596 19.9474 23.7596H18.6842" stroke="#CDB28B" stroke-width="2" stroke-linecap="round" stroke-linejoin="round"/>
  <path d="M1 8.60177V4.8123C1 2.71943 2.69661 1.02283 4.78947 1.02283H7.31579" stroke="#CDB28B" stroke-width="2" stroke-linecap="round" stroke-linejoin="round"/>
  <path d="M1 22.4965L2.46021 23.2266C3.16138 23.5772 3.93454 23.7597 4.71846 23.7597H13C14.0464 23.7597 14.8947 22.9114 14.8947 21.865V21.865C14.8947 20.8185 14.0464 19.9702 13 19.9702H7.94737" stroke="#424C57" stroke-width="2" stroke-linecap="round" stroke-linejoin="round"/>
  <path d="M1 13.6544H4.68002C5.22664 13.6544 5.75851 13.8317 6.19581 14.1597L9.02184 16.2792C9.49739 16.6358 9.79476 17.1813 9.8369 17.7743C9.87904 18.3672 9.6618 18.9493 9.24147 19.3696V19.3696C8.5199 20.0912 7.37754 20.1723 6.56118 19.5601L4.78947 18.2313" stroke="#424C57" stroke-width="2" stroke-linecap="round" stroke-linejoin="round"/>
  <path d="M23.7368 9.52632V11.1053C23.7368 12.5005 22.6057 13.6316 21.2105 13.6316H13.6315C12.2363 13.6316 11.1052 12.5005 11.1052 11.1053V3.52632C11.1052 2.13107 12.2363 1 13.6315 1H21.2105C22.6057 1 23.7368 2.13107 23.7368 3.52632V5.10526" stroke="#424C57" stroke-width="2" stroke-linecap="round" stroke-linejoin="round"/>
  <path fill-rule="evenodd" clip-rule="evenodd" d="M22.7895 5.10522H24.3685C24.7173 5.10522 25 5.38799 25 5.7368V8.8947C25 9.24351 24.7173 9.52628 24.3685 9.52628H22.7895C21.5687 9.52628 20.579 8.53659 20.579 7.31575C20.579 6.09491 21.5687 5.10522 22.7895 5.10522Z" fill="#424C57" stroke="#424C57" stroke-width="2" stroke-linecap="round" stroke-linejoin="round"/>
</svg>