<svg width="20" height="20" viewBox="0 0 20 20" fill="none" xmlns="http://www.w3.org/2000/svg">
<path d="M10.7341 5.84721L14.7115 6.90696M9.88151 9.01125L11.8702 9.54108M9.98043 14.9721L10.7759 15.1841C13.0258 15.7835 14.1508 16.0832 15.0371 15.5745C15.9233 15.0657 16.2248 13.947 16.8277 11.7097L17.6803 8.54575C18.2832 6.30846 18.5846 5.18981 18.0729 4.30855C17.5613 3.42728 16.4363 3.12754 14.1863 2.52806L13.3908 2.31611C11.1408 1.71663 10.0158 1.4169 9.12959 1.9257C8.24331 2.4345 7.94187 3.55314 7.33899 5.79042L6.48639 8.95442C5.88351 11.1917 5.58208 12.3103 6.09376 13.1916C6.60544 14.0729 7.73043 14.3727 9.98043 14.9721Z" stroke="#2C3A53" stroke-width="1.5" stroke-linecap="round"/>
<path d="M9.99999 17.4552L9.20641 17.6712C6.96168 18.2825 5.83934 18.5882 4.95515 18.0693C4.07097 17.5506 3.77023 16.41 3.16877 14.1288L2.31817 10.9027C1.71671 8.62157 1.41597 7.481 1.92647 6.58244C2.36805 5.80516 3.33332 5.83346 4.58332 5.83336" stroke="#2C3A53" stroke-width="1.5" stroke-linecap="round"/>
</svg>
