<svg xmlns="http://www.w3.org/2000/svg" width="20" height="20" viewBox="0 0 20 20" fill="none">
  <path d="M10.7338 5.84721L14.7112 6.90696M9.88117 9.01125L11.8698 9.54108M9.98009 14.9721L10.7756 15.1841C13.0255 15.7835 14.1505 16.0832 15.0368 15.5745C15.923 15.0657 16.2245 13.947 16.8273 11.7097L17.6799 8.54575C18.2828 6.30846 18.5843 5.18981 18.0726 4.30855C17.5609 3.42728 16.4359 3.12754 14.1859 2.52806L13.3904 2.31611C11.1405 1.71663 10.0155 1.4169 9.12926 1.9257C8.24297 2.4345 7.94153 3.55314 7.33866 5.79042L6.48606 8.95442C5.88317 11.1917 5.58174 12.3103 6.09342 13.1916C6.60511 14.0729 7.7301 14.3727 9.98009 14.9721Z" stroke="#778698" stroke-width="1.5" stroke-linecap="round"/>
  <path d="M10.0003 17.4552L9.20674 17.6712C6.96202 18.2825 5.83968 18.5882 4.95549 18.0693C4.0713 17.5506 3.77057 16.41 3.1691 14.1288L2.31851 10.9027C1.71704 8.62157 1.41631 7.481 1.9268 6.58244C2.36839 5.80516 3.33366 5.83346 4.58366 5.83336" stroke="#778698" stroke-width="1.5" stroke-linecap="round"/>
</svg>