<svg xmlns="http://www.w3.org/2000/svg" width="18" height="12" viewBox="0 0 18 12" fill="none">
  <path d="M8.89231 0.0179463C8.9444 0.00309288 8.99991 -0.00830629 9.0532 0.00792885C10.312 0.340058 11.5359 0.795161 12.7325 1.30812C12.8473 1.35976 12.9661 1.4026 13.0769 1.46287C12.9853 2.11902 12.8866 2.77429 12.8038 3.43147C12.9118 3.38052 13.0116 3.31454 13.1162 3.25686C13.6581 2.94684 14.2124 2.6584 14.7773 2.39294C14.8266 2.37221 14.8833 2.33007 14.9365 2.36565C15.8811 2.84165 16.7996 3.36826 17.7089 3.90903C17.806 3.96827 17.9053 4.02388 18 4.08709C17.7058 4.30264 17.4072 4.51232 17.1159 4.73218C16.174 5.43824 15.2632 6.18644 14.3827 6.96883C14.3308 7.02324 14.2549 6.97729 14.1935 6.96866C12.64 6.60838 11.0741 6.30336 9.49988 6.05103C9.34225 6.02978 9.18599 5.99628 9.02733 5.98419C9.08473 6.04032 9.15121 6.0854 9.21631 6.13169C10.2925 6.92272 11.3521 7.73689 12.3852 8.58423C12.4168 8.61048 12.4476 8.6376 12.4788 8.66454C12.3575 8.7939 12.2211 8.90772 12.0969 9.03415C11.0878 10.0029 10.0776 10.9708 9.06913 11.9404C9.04652 11.9604 9.02356 11.9801 9.0006 12C8.9163 11.9345 8.84537 11.8542 8.76895 11.7803C7.01872 10.081 5.25205 8.39718 3.41701 6.79042C3.44768 6.71563 3.48366 6.64327 3.52118 6.57176C4.00213 5.62114 4.48925 4.67294 5.02177 3.7503C5.0754 3.6541 5.13965 3.56377 5.18506 3.46308C5.09579 3.50246 5.01337 3.55531 4.9289 3.60401C3.94679 4.17449 2.98335 4.77709 2.03568 5.40387C1.98445 5.43617 1.93733 5.479 1.87804 5.49575C1.8215 5.46276 1.77473 5.41561 1.7235 5.37537C1.21633 4.96604 0.691009 4.58002 0.155576 4.20938C0.102975 4.17328 0.0508876 4.13649 0 4.0978C0.107943 4.01766 0.228909 3.95808 0.342678 3.88675C1.85954 2.98552 3.41273 2.14285 5.01971 1.4159C5.08705 1.38446 5.15576 1.34733 5.23217 1.34785C6.35838 1.34906 7.48459 1.39292 8.60772 1.47635C8.72063 1.48274 8.8332 1.50001 8.94646 1.49448C8.91424 1.47462 8.88135 1.45597 8.84674 1.44094C8.18126 1.16684 7.50584 0.917442 6.82391 0.688423C6.9274 0.63989 7.03808 0.610356 7.14534 0.572014C7.72361 0.374429 8.30274 0.178571 8.89231 0.0179463ZM8.95485 1.5292C7.99039 1.95874 7.04511 2.4318 6.1168 2.93561C5.81558 3.10262 5.51128 3.2648 5.21572 3.44183C5.28923 3.49071 5.36565 3.53475 5.44138 3.58001C6.08373 3.96758 6.71254 4.37743 7.33296 4.79937C7.89666 5.18038 8.44889 5.57831 9.003 5.97313C9.09398 5.91458 9.17896 5.84757 9.2672 5.78505C10.3432 5.00939 11.4372 4.25705 12.5739 3.57379C12.6467 3.53061 12.7221 3.49106 12.7891 3.43838C11.5938 2.7078 10.3424 2.07135 9.0532 1.5273C9.0215 1.51192 8.98586 1.51313 8.95485 1.5292Z" fill="#424C57"/>
  <path d="M8.61644 2.21186C9.04221 2.17231 9.47587 2.19908 9.89017 2.30858C10.1559 2.37835 10.414 2.4844 10.6434 2.6376C10.8055 2.74693 10.9533 2.88303 11.0534 3.05315C11.1569 3.22776 11.2031 3.44296 11.1516 3.64245C11.0952 3.8782 10.9335 4.07268 10.7479 4.21966C10.4638 4.44091 10.122 4.57511 9.77383 4.65335C9.20139 4.78029 8.59742 4.76768 8.03149 4.61293C7.68778 4.5169 7.35264 4.35991 7.09169 4.10999C6.91744 3.93503 6.78346 3.69841 6.79459 3.44366C6.80093 3.17319 6.96148 2.93277 7.15989 2.76195C7.56647 2.41911 8.09762 2.26713 8.61644 2.21186Z" fill="#424C57"/>
</svg>