<svg xmlns="http://www.w3.org/2000/svg" width="16" height="16" viewBox="0 0 16 16" fill="none">
  <path d="M10.5 6V9C10.5 9.13261 10.4473 9.25979 10.3536 9.35355C10.2598 9.44732 10.1326 9.5 10 9.5C9.86739 9.5 9.74022 9.44732 9.64645 9.35355C9.55268 9.25979 9.5 9.13261 9.5 9V7.20687L6.35375 10.3538C6.3073 10.4002 6.25215 10.4371 6.19145 10.4622C6.13075 10.4873 6.0657 10.5003 6 10.5003C5.93431 10.5003 5.86925 10.4873 5.80855 10.4622C5.74786 10.4371 5.69271 10.4002 5.64625 10.3538C5.5998 10.3073 5.56295 10.2521 5.53781 10.1914C5.51266 10.1308 5.49972 10.0657 5.49972 10C5.49972 9.9343 5.51266 9.86925 5.53781 9.80855C5.56295 9.74786 5.5998 9.69271 5.64625 9.64625L8.79313 6.5H7C6.86739 6.5 6.74022 6.44732 6.64645 6.35355C6.55268 6.25979 6.5 6.13261 6.5 6C6.5 5.86739 6.55268 5.74021 6.64645 5.64645C6.74022 5.55268 6.86739 5.5 7 5.5H10C10.1326 5.5 10.2598 5.55268 10.3536 5.64645C10.4473 5.74021 10.5 5.86739 10.5 6ZM14.5 8C14.5 9.28558 14.1188 10.5423 13.4046 11.6112C12.6903 12.6801 11.6752 13.5132 10.4874 14.0052C9.29973 14.4972 7.99279 14.6259 6.73192 14.3751C5.47104 14.1243 4.31285 13.5052 3.40381 12.5962C2.49477 11.6872 1.8757 10.529 1.6249 9.26809C1.37409 8.00721 1.50282 6.70028 1.99479 5.51256C2.48676 4.32484 3.31988 3.30968 4.3888 2.59545C5.45772 1.88122 6.71442 1.5 8 1.5C9.72335 1.50182 11.3756 2.18722 12.5942 3.40582C13.8128 4.62441 14.4982 6.27665 14.5 8ZM13.5 8C13.5 6.9122 13.1774 5.84883 12.5731 4.94436C11.9687 4.03989 11.1098 3.33494 10.1048 2.91866C9.09977 2.50238 7.9939 2.39346 6.92701 2.60568C5.86011 2.8179 4.8801 3.34172 4.11092 4.11091C3.34173 4.8801 2.8179 5.86011 2.60568 6.927C2.39347 7.9939 2.50238 9.09977 2.91867 10.1048C3.33495 11.1098 4.0399 11.9687 4.94437 12.5731C5.84884 13.1774 6.91221 13.5 8 13.5C9.45819 13.4983 10.8562 12.9184 11.8873 11.8873C12.9184 10.8562 13.4983 9.45818 13.5 8Z" fill="#778698"/>
</svg>