<svg xmlns="http://www.w3.org/2000/svg" width="12" height="12" viewBox="0 0 12 12" fill="none">
  <path d="M7.875 4.5V6.75C7.875 6.84946 7.83549 6.94484 7.76517 7.01517C7.69484 7.08549 7.59946 7.125 7.5 7.125C7.40055 7.125 7.30516 7.08549 7.23484 7.01517C7.16451 6.94484 7.125 6.84946 7.125 6.75V5.40516L4.76531 7.76531C4.73047 7.80015 4.68911 7.82779 4.64359 7.84665C4.59807 7.8655 4.54928 7.87521 4.5 7.87521C4.45073 7.87521 4.40194 7.8655 4.35642 7.84665C4.31089 7.82779 4.26953 7.80015 4.23469 7.76531C4.19985 7.73047 4.17221 7.68911 4.15335 7.64359C4.1345 7.59806 4.12479 7.54927 4.12479 7.5C4.12479 7.45073 4.1345 7.40194 4.15335 7.35641C4.17221 7.31089 4.19985 7.26953 4.23469 7.23469L6.59485 4.875H5.25C5.15055 4.875 5.05516 4.83549 4.98484 4.76516C4.91451 4.69484 4.875 4.59946 4.875 4.5C4.875 4.40054 4.91451 4.30516 4.98484 4.23484C5.05516 4.16451 5.15055 4.125 5.25 4.125H7.5C7.59946 4.125 7.69484 4.16451 7.76517 4.23484C7.83549 4.30516 7.875 4.40054 7.875 4.5ZM10.875 6C10.875 6.96418 10.5891 7.90671 10.0534 8.7084C9.51775 9.51009 8.75637 10.1349 7.86558 10.5039C6.97479 10.8729 5.99459 10.9694 5.04894 10.7813C4.10328 10.5932 3.23464 10.1289 2.55286 9.44715C1.87108 8.76536 1.40678 7.89672 1.21867 6.95107C1.03057 6.00541 1.12711 5.02521 1.49609 4.13442C1.86507 3.24363 2.48991 2.48226 3.2916 1.94659C4.09329 1.41091 5.03582 1.125 6 1.125C7.29251 1.12636 8.5317 1.64042 9.44564 2.55436C10.3596 3.46831 10.8736 4.70749 10.875 6ZM10.125 6C10.125 5.18415 9.88307 4.38663 9.42981 3.70827C8.97655 3.02992 8.33232 2.50121 7.57857 2.189C6.82483 1.87679 5.99543 1.7951 5.19525 1.95426C4.39508 2.11342 3.66008 2.50629 3.08319 3.08318C2.5063 3.66008 2.11343 4.39508 1.95426 5.19525C1.7951 5.99542 1.87679 6.82482 2.189 7.57857C2.50121 8.33231 3.02992 8.97655 3.70827 9.42981C4.38663 9.88307 5.18415 10.125 6 10.125C7.09364 10.1238 8.14213 9.68876 8.91545 8.91545C9.68877 8.14213 10.1238 7.09364 10.125 6Z" fill="#778698"/>
</svg>