<svg xmlns="http://www.w3.org/2000/svg" width="14" height="8" viewBox="0 0 14 8" fill="none">
  <path d="M13.692 0.432808C13.634 0.374698 13.5651 0.328598 13.4892 0.297145C13.4133 0.265693 13.332 0.249505 13.2499 0.249505C13.1677 0.249505 13.0864 0.265693 13.0105 0.297145C12.9346 0.328598 12.8657 0.374698 12.8077 0.432808L6.99986 6.2414L1.19205 0.432808C1.07477 0.315533 0.915712 0.249648 0.749859 0.249648C0.584007 0.249648 0.424947 0.315533 0.307672 0.432808C0.190396 0.550084 0.124512 0.709143 0.124512 0.874996C0.124512 1.04085 0.190396 1.19991 0.307672 1.31718L6.55767 7.56718C6.61572 7.62529 6.68465 7.67139 6.76052 7.70285C6.8364 7.7343 6.91772 7.75049 6.99986 7.75049C7.08199 7.75049 7.16332 7.7343 7.2392 7.70285C7.31507 7.67139 7.384 7.62529 7.44205 7.56718L13.692 1.31718C13.7502 1.25914 13.7963 1.19021 13.8277 1.11433C13.8592 1.03846 13.8754 0.95713 13.8754 0.874996C13.8754 0.792861 13.8592 0.711532 13.8277 0.635658C13.7963 0.559784 13.7502 0.490854 13.692 0.432808Z" fill="#778698"/>
</svg>