<svg xmlns="http://www.w3.org/2000/svg" width="20" height="20" viewBox="0 0 20 20" fill="none">
  <path d="M10.7341 5.84709L14.7115 6.90683M9.88154 9.01113L11.8702 9.54096M9.98046 14.972L10.776 15.184C13.0259 15.7834 14.1509 16.0831 15.0371 15.5744C15.9234 15.0655 16.2249 13.9469 16.8277 11.7096L17.6803 8.54563C18.2832 6.30833 18.5846 5.18969 18.073 4.30843C17.5613 3.42716 16.4363 3.12742 14.1863 2.52794L13.3908 2.31599C11.1409 1.71651 10.0159 1.41678 9.12962 1.92558C8.24334 2.43438 7.9419 3.55302 7.33902 5.7903L6.48642 8.95429C5.88354 11.1915 5.58211 12.3102 6.09379 13.1915C6.60547 14.0728 7.73047 14.3725 9.98046 14.972Z" stroke="#2C3A53" stroke-width="1.5" stroke-linecap="round"/>
  <path d="M9.99996 17.4553L9.20638 17.6714C6.96165 18.2826 5.83931 18.5883 4.95512 18.0694C4.07094 17.5507 3.7702 16.4101 3.16874 14.1289L2.31814 10.9029C1.71668 8.62169 1.41594 7.48112 1.92644 6.58256C2.36802 5.80529 3.33329 5.83359 4.58329 5.83349" stroke="#2C3A53" stroke-width="1.5" stroke-linecap="round"/>
</svg>