<svg xmlns="http://www.w3.org/2000/svg" width="24" height="24" viewBox="0 0 24 24" fill="none">
  <path d="M21.2362 11.0557C21.5511 11.808 21.7223 12.6165 21.7223 13.4583C21.7223 15.4598 20.7546 17.2728 19.188 18.5904C18.9531 18.788 18.8056 19.0741 18.8056 19.381V21.7222H16.8612L16.0894 20.621C15.9696 20.4502 15.7544 20.3759 15.5523 20.4279C13.8714 20.8601 12.0732 20.8601 10.3923 20.4279C10.1902 20.3759 9.97494 20.4502 9.85518 20.621L9.08339 21.7222H7.13894V19.4039C7.13894 19.0842 6.98178 18.7849 6.71859 18.6034C5.67366 17.883 2.27783 16.4736 2.27783 14.9733V13.4583C2.27783 12.883 2.71311 12.4166 3.25005 12.4166C3.83985 12.4166 4.32133 12.1875 4.51594 11.5781C5.2617 9.24286 7.36338 7.36834 10.0756 6.57568" stroke="#778698" stroke-linecap="round" stroke-linejoin="round"/>
  <path d="M7.62476 12H7.63473" stroke="#778698" stroke-width="2" stroke-linecap="round" stroke-linejoin="round"/>
  <path d="M15.889 5.19439C14.8151 5.19439 13.9446 5.84731 13.9446 6.65274C13.9446 7.45813 14.8151 8.11108 15.889 8.11108C16.9628 8.11108 17.8335 8.76402 17.8335 9.56941C17.8335 10.3748 16.9628 11.0277 15.889 11.0277M15.889 5.19439C16.7356 5.19439 17.4559 5.6002 17.7227 6.16663M15.889 5.19439V4.22217M15.889 11.0277C15.0423 11.0277 14.3221 10.6219 14.0552 10.0555M15.889 11.0277V12" stroke="#778698" stroke-linecap="round"/>
</svg>