<svg xmlns="http://www.w3.org/2000/svg" width="16" height="16" viewBox="0 0 16 16" fill="none">
  <path d="M14.3332 6.55266C14.5491 7.06853 14.6665 7.62293 14.6665 8.2002C14.6665 9.5726 14.003 10.8159 12.9287 11.7193C12.7677 11.8548 12.6665 12.051 12.6665 12.2615V13.8669H11.3332L10.804 13.1117C10.7219 12.9946 10.5743 12.9437 10.4357 12.9793C9.28306 13.2757 8.04999 13.2757 6.89739 12.9793C6.75879 12.9437 6.61121 12.9946 6.52908 13.1117L5.99986 13.8669H4.66652V12.2771C4.66652 12.0579 4.55876 11.8527 4.37828 11.7283C3.66176 11.2343 1.33319 10.2678 1.33319 9.239V8.2002C1.33319 7.80566 1.63166 7.48586 1.99986 7.48586C2.40429 7.48586 2.73444 7.3288 2.86789 6.91086C3.37927 5.30958 4.82042 4.0242 6.68026 3.48066" stroke="#424C57" stroke-linecap="round" stroke-linejoin="round"/>
  <path d="M4.99988 8H5.00586" stroke="#424C57" stroke-width="2" stroke-linecap="round" stroke-linejoin="round"/>
  <path d="M10.6665 2.53327C9.93012 2.53327 9.33319 2.98098 9.33319 3.53328C9.33319 4.08555 9.93012 4.53328 10.6665 4.53328C11.4029 4.53328 11.9999 4.98101 11.9999 5.53328C11.9999 6.08555 11.4029 6.53328 10.6665 6.53328M10.6665 2.53327C11.2471 2.53327 11.7409 2.81153 11.9239 3.19995M10.6665 2.53327V1.8666M10.6665 6.53328C10.0859 6.53328 9.59206 6.25501 9.40906 5.86661M10.6665 6.53328V7.19995" stroke="#424C57" stroke-linecap="round"/>
</svg>