<svg xmlns="http://www.w3.org/2000/svg" width="20" height="20" viewBox="0 0 20 20" fill="none">
  <path d="M19.0501 6.95226C18.9091 6.82933 18.7348 6.75107 18.5492 6.72742C18.3637 6.70377 18.1753 6.7358 18.0079 6.81945L14.0853 8.77257L10.8103 3.33273C10.7261 3.19314 10.6073 3.07767 10.4653 2.99752C10.3234 2.91736 10.1631 2.87524 10.0001 2.87524C9.83711 2.87524 9.67686 2.91736 9.53492 2.99752C9.39298 3.07767 9.27415 3.19314 9.18996 3.33273L5.91496 8.77491L1.99387 6.82179C1.82695 6.73889 1.63926 6.70714 1.45436 6.73052C1.26946 6.7539 1.09558 6.83137 0.954551 6.95321C0.813519 7.07505 0.711613 7.23583 0.661622 7.41537C0.611632 7.59491 0.615784 7.78522 0.673556 7.96241L3.56418 16.8187C3.59324 16.9076 3.64192 16.9889 3.70661 17.0566C3.77131 17.1242 3.85037 17.1765 3.93796 17.2095C4.02555 17.2425 4.11943 17.2554 4.21267 17.2472C4.30592 17.2391 4.39614 17.2101 4.47668 17.1624C4.49621 17.1507 6.49387 15.9999 10.0001 15.9999C13.5064 15.9999 15.504 17.1507 15.522 17.1616C15.6026 17.2098 15.6929 17.2392 15.7864 17.2476C15.8799 17.256 15.9741 17.2433 16.062 17.2103C16.1498 17.1774 16.2292 17.1251 16.2941 17.0573C16.359 16.9895 16.4078 16.9079 16.4368 16.8187L19.3275 7.96476C19.3869 7.78752 19.3923 7.5966 19.3429 7.4163C19.2935 7.236 19.1916 7.07447 19.0501 6.95226ZM15.4689 15.7523C14.5314 15.3546 12.6626 14.7499 10.0001 14.7499C7.33762 14.7499 5.46887 15.3546 4.53137 15.7523L2.08684 8.26554L5.60793 10.021C5.82106 10.1261 6.06583 10.1476 6.29401 10.0812C6.52219 10.0149 6.71724 9.86544 6.84074 9.66241L10.0001 4.41085L13.1595 9.66085C13.283 9.86368 13.4779 10.013 13.7059 10.0793C13.9339 10.1457 14.1785 10.1243 14.3915 10.0194L17.9134 8.26554L15.4689 15.7523Z" fill="#778698"/>
</svg>