<svg xmlns="http://www.w3.org/2000/svg" width="16" height="16" viewBox="0 0 16 16" fill="none">
  <path d="M9.98706 4.67708C9.98706 4.67708 10.3204 5.01041 10.6537 5.67708C10.6537 5.67708 11.7125 4.01041 12.6537 3.67708" stroke="#424C57" stroke-linecap="round" stroke-linejoin="round"/>
  <path d="M6.66327 1.34761C4.99763 1.27708 3.71079 1.46896 3.71079 1.46896C2.89822 1.52706 1.34101 1.98261 1.34103 4.64307C1.34104 7.28093 1.3238 10.5329 1.34103 11.8293C1.34103 12.6213 1.83144 14.4689 3.52888 14.5679C5.59211 14.6883 9.30851 14.7139 11.0137 14.5679C11.4701 14.5422 12.9898 14.1839 13.1821 12.5305C13.3814 10.8176 13.3417 9.62713 13.3417 9.3438" stroke="#424C57" stroke-linecap="round" stroke-linejoin="round"/>
  <path d="M14.6665 4.67708C14.6665 6.51803 13.1727 8.0104 11.3299 8.0104C9.48728 8.0104 7.99341 6.51803 7.99341 4.67708C7.99341 2.83613 9.48728 1.34375 11.3299 1.34375C13.1727 1.34375 14.6665 2.83613 14.6665 4.67708Z" stroke="#424C57" stroke-linecap="round"/>
  <path d="M4.65369 8.67707H7.32037" stroke="#424C57" stroke-linecap="round"/>
  <path d="M4.65369 11.3437H9.98704" stroke="#424C57" stroke-linecap="round"/>
</svg>