<svg width="32" height="32" viewBox="0 0 32 32" fill="none" xmlns="http://www.w3.org/2000/svg">
<mask id="mask0_2045_14580" style="mask-type:luminance" maskUnits="userSpaceOnUse" x="0" y="2" width="32" height="28">
<path d="M24.6667 12H7.33333C6.59695 12 6 12.597 6 13.3333V26.6667C6 27.403 6.59695 28 7.33333 28H24.6667C25.403 28 26 27.403 26 26.6667V13.3333C26 12.597 25.403 12 24.6667 12Z" fill="white" stroke="white" stroke-width="4"/>
<path d="M11.3333 18.6667C12.0697 18.6667 12.6667 18.0697 12.6667 17.3333C12.6667 16.597 12.0697 16 11.3333 16C10.597 16 10 16.597 10 17.3333C10 18.0697 10.597 18.6667 11.3333 18.6667Z" fill="black"/>
<path d="M20.6666 18.6667C21.403 18.6667 21.9999 18.0697 21.9999 17.3333C21.9999 16.597 21.403 16 20.6666 16C19.9302 16 19.3333 16.597 19.3333 17.3333C19.3333 18.0697 19.9302 18.6667 20.6666 18.6667Z" fill="black"/>
<path d="M13.3333 21.3333C12.9797 21.3333 12.6406 21.4738 12.3905 21.7239C12.1405 21.9739 12 22.313 12 22.6667C12 23.0203 12.1405 23.3594 12.3905 23.6095C12.6406 23.8595 12.9797 24 13.3333 24V21.3333ZM18.6667 24C19.0203 24 19.3594 23.8595 19.6095 23.6095C19.8595 23.3594 20 23.0203 20 22.6667C20 22.313 19.8595 21.9739 19.6095 21.7239C19.3594 21.4738 19.0203 21.3333 18.6667 21.3333V24ZM13.3333 24H18.6667V21.3333H13.3333V24Z" fill="black"/>
<path d="M16 6.66667V12M2.66663 17.3333V22.6667M29.3333 17.3333V22.6667" stroke="white" stroke-width="4" stroke-linecap="round" stroke-linejoin="round"/>
<path d="M16 6.66667C16.7363 6.66667 17.3333 6.06971 17.3333 5.33333C17.3333 4.59695 16.7363 4 16 4C15.2636 4 14.6666 4.59695 14.6666 5.33333C14.6666 6.06971 15.2636 6.66667 16 6.66667Z" stroke="white" stroke-width="4"/>
</mask>
<g mask="url(#mask0_2045_14580)">
<path d="M0 0H32V32H0V0Z" fill="url(#paint0_linear_2045_14580)"/>
</g>
<defs>
<linearGradient id="paint0_linear_2045_14580" x1="16" y1="0" x2="16" y2="32" gradientUnits="userSpaceOnUse">
<stop stop-color="#52607A"/>
<stop offset="1" stop-color="#96B0E0"/>
</linearGradient>
</defs>
</svg>
