<svg xmlns="http://www.w3.org/2000/svg" width="16" height="16" viewBox="0 0 16 16" fill="none">
  <path d="M8.58729 4.67775L11.7692 5.52554M7.90522 7.20897L9.49615 7.63284M7.98435 11.9776L8.62075 12.1472C10.4207 12.6268 11.3207 12.8666 12.0297 12.4596C12.7387 12.0525 12.9799 11.1576 13.4622 9.36777L14.1442 6.83657C14.6266 5.04674 14.8677 4.15183 14.4584 3.44681C14.049 2.7418 13.149 2.50201 11.349 2.02243L10.7126 1.85287C8.91269 1.37328 8.01269 1.13349 7.30369 1.54053C6.59466 1.94757 6.35351 2.84249 5.87121 4.63231L5.18913 7.16351C4.70682 8.95331 4.46567 9.84824 4.87502 10.5532C5.28437 11.2583 6.18436 11.4981 7.98435 11.9776Z" stroke="#1F2D47" stroke-width="1.5" stroke-linecap="round"/>
  <path d="M7.99998 13.9641L7.36511 14.137C5.56933 14.626 4.67146 14.8705 3.96411 14.4555C3.25676 14.0405 3.01617 13.128 2.535 11.3031L1.85453 8.72222C1.37335 6.89728 1.13277 5.98482 1.54116 5.26598C1.89443 4.64416 2.66665 4.6668 3.66665 4.66672" stroke="#1F2D47" stroke-width="1.5" stroke-linecap="round"/>
</svg>