<svg
                    xmlns="http://www.w3.org/2000/svg"
                    width="14"
                    height="14"
                    viewBox="0 0 14 14"
                    fill="none"
                >
                    <path
                        d="M7 13C5.81331 13 4.65328 12.6481 3.66658 11.9888C2.67989 11.3295 1.91085 10.3925 1.45673 9.2961C1.0026 8.19974 0.88378 6.99335 1.11529 5.82946C1.3468 4.66557 1.91825 3.59648 2.75736 2.75736C3.59648 1.91825 4.66557 1.3468 5.82946 1.11529C6.99335 0.88378 8.19974 1.0026 9.2961 1.45673C10.3925 1.91085 11.3295 2.67989 11.9888 3.66658C12.6481 4.65328 13 5.81331 13 7C12.9981 8.59073 12.3654 10.1158 11.2406 11.2406C10.1158 12.3654 8.59073 12.9981 7 13ZM7 1.70588C5.95292 1.70588 4.92936 2.01638 4.05875 2.5981C3.18813 3.17983 2.50957 4.00666 2.10888 4.97403C1.70818 5.9414 1.60334 7.00587 1.80761 8.03283C2.01188 9.05979 2.5161 10.0031 3.2565 10.7435C3.99689 11.4839 4.94021 11.9881 5.96717 12.1924C6.99413 12.3967 8.0586 12.2918 9.02597 11.8911C9.99335 11.4904 10.8202 10.8119 11.4019 9.94125C11.9836 9.07064 12.2941 8.04708 12.2941 7C12.2926 5.59639 11.7343 4.25072 10.7418 3.25821C9.74929 2.26571 8.40361 1.70744 7 1.70588ZM9.23529 7.94118V5.11765C9.23529 5.02404 9.19811 4.93427 9.13192 4.86808C9.06573 4.80189 8.97596 4.76471 8.88235 4.76471H6.05883C5.96522 4.76471 5.87545 4.80189 5.80926 4.86808C5.74307 4.93427 5.70588 5.02404 5.70588 5.11765C5.70588 5.21125 5.74307 5.30103 5.80926 5.36722C5.87545 5.43341 5.96522 5.47059 6.05883 5.47059H8.03L4.86824 8.63294C4.80589 8.69985 4.77195 8.78834 4.77357 8.87978C4.77518 8.97121 4.81222 9.05845 4.87689 9.12312C4.94155 9.18778 5.02879 9.22482 5.12023 9.22644C5.21166 9.22805 5.30015 9.19411 5.36706 9.13177L8.52941 5.97V7.94118C8.52941 8.03478 8.5666 8.12456 8.63279 8.19074C8.69898 8.25693 8.78875 8.29412 8.88235 8.29412C8.97596 8.29412 9.06573 8.25693 9.13192 8.19074C9.19811 8.12456 9.23529 8.03478 9.23529 7.94118Z"
                        fill="#778698"
                    />
                </svg>