<svg xmlns="http://www.w3.org/2000/svg" width="16" height="16" viewBox="0 0 16 16" fill="none">
  <path d="M7.60002 6.29997C6.93726 6.29997 6.40002 6.77007 6.40002 7.34999C6.40002 7.92986 6.93726 8.39998 7.60002 8.39998C8.26272 8.39998 8.80002 8.8701 8.80002 9.44998C8.80002 10.0299 8.26272 10.5 7.60002 10.5M7.60002 6.29997C8.1225 6.29997 8.56698 6.59215 8.73168 6.99999M7.60002 6.29997V5.59998M7.60002 10.5C7.07748 10.5 6.633 10.2078 6.4683 9.79998M7.60002 10.5V11.2" stroke="#CB0B38" stroke-linecap="round"/>
  <path d="M9.0105 1.59998C9.0105 1.59998 8.46071 1.59998 7.99998 1.59998C4.98299 1.59998 3.4745 1.59998 2.53723 2.53724C1.59998 3.47449 1.59998 4.98299 1.59998 7.99998C1.59998 11.0169 1.59998 12.5255 2.53723 13.4627C3.4745 14.4 4.98299 14.4 7.99998 14.4C11.0169 14.4 12.5254 14.4 13.4627 13.4627C14.4 12.5255 14.4 11.0169 14.4 7.99998C14.4 7.53925 14.4 6.98946 14.4 6.98946" stroke="#CB0B38" stroke-linecap="round"/>
  <path d="M11.2 4.79998L13.8725 2.12593M14.4 4.46605L14.3244 2.4875C14.3244 2.02117 14.0459 1.73061 13.5387 1.69397L11.5393 1.59998" stroke="#CB0B38" stroke-linecap="round" stroke-linejoin="round"/>
</svg>