<svg xmlns="http://www.w3.org/2000/svg" width="20" height="20" viewBox="0 0 20 20" fill="none">
  <path d="M8.25 17.375C8.25 17.5408 8.18415 17.6997 8.06694 17.8169C7.94973 17.9342 7.79076 18 7.625 18H3.25C2.91848 18 2.60054 17.8683 2.36612 17.6339C2.1317 17.3995 2 17.0815 2 16.75V4.25C2 3.91848 2.1317 3.60054 2.36612 3.36612C2.60054 3.1317 2.91848 3 3.25 3H7.625C7.79076 3 7.94973 3.06585 8.06694 3.18306C8.18415 3.30027 8.25 3.45924 8.25 3.625C8.25 3.79076 8.18415 3.94973 8.06694 4.06694C7.94973 4.18415 7.79076 4.25 7.625 4.25H3.25V16.75H7.625C7.79076 16.75 7.94973 16.8158 8.06694 16.9331C8.18415 17.0503 8.25 17.2092 8.25 17.375ZM16.8172 10.0578L13.6922 6.93281C13.5749 6.81554 13.4159 6.74965 13.25 6.74965C13.0841 6.74965 12.9251 6.81554 12.8078 6.93281C12.6905 7.05009 12.6247 7.20915 12.6247 7.375C12.6247 7.54085 12.6905 7.69991 12.8078 7.81719L14.8664 9.875H7.625C7.45924 9.875 7.30027 9.94085 7.18306 10.0581C7.06585 10.1753 7 10.3342 7 10.5C7 10.6658 7.06585 10.8247 7.18306 10.9419C7.30027 11.0592 7.45924 11.125 7.625 11.125H14.8664L12.8078 13.1828C12.6905 13.3001 12.6247 13.4591 12.6247 13.625C12.6247 13.7909 12.6905 13.9499 12.8078 14.0672C12.9251 14.1845 13.0841 14.2503 13.25 14.2503C13.4159 14.2503 13.5749 14.1845 13.6922 14.0672L16.8172 10.9422C16.8753 10.8841 16.9214 10.8152 16.9529 10.7393C16.9843 10.6635 17.0005 10.5821 17.0005 10.5C17.0005 10.4179 16.9843 10.3365 16.9529 10.2607C16.9214 10.1848 16.8753 10.1159 16.8172 10.0578Z" fill="#778698"/>
</svg>