<svg width="29" height="33" viewBox="0 0 29 33" fill="none" xmlns="http://www.w3.org/2000/svg">
<path d="M8.08941 13.8277C7.87112 13.8277 7.66497 13.7392 7.50974 13.5752C7.34967 13.4086 7.25751 13.1847 7.25508 12.9452C7.25023 12.7057 7.33511 12.4793 7.49034 12.3074L14.3445 4.68529C14.4973 4.51608 14.7131 4.41455 14.9338 4.41195H14.9484C15.1667 4.41195 15.3728 4.50306 15.5305 4.66706L17.4441 6.67153L21.6061 2.29555L21.1525 2.27733C20.9294 2.26952 20.7233 2.16799 20.5705 1.99358C20.4177 1.81917 20.34 1.59008 20.3473 1.35059C20.3643 0.866395 20.7305 0.486328 21.1841 0.486328H21.2108L23.6192 0.57744H23.6507C23.6677 0.582646 23.6822 0.582646 23.6992 0.58525L23.7259 0.590456C23.7501 0.595662 23.7744 0.600869 23.7962 0.606075L23.8132 0.611282C23.8277 0.616488 23.8496 0.621694 23.869 0.629504L23.886 0.637314C23.9054 0.645123 23.9248 0.655536 23.9442 0.665949L23.9587 0.673758C24.0703 0.733632 24.1746 0.827347 24.2546 0.941888C24.2716 0.965316 24.2861 0.988745 24.2983 1.01217C24.3128 1.03821 24.325 1.06424 24.3371 1.09027L24.3419 1.10068C24.3492 1.1163 24.3541 1.12932 24.3589 1.14494L24.371 1.17878C24.3783 1.20221 24.3832 1.22043 24.388 1.24126L24.3929 1.25948C24.4001 1.28811 24.405 1.31415 24.4074 1.34018V1.3558C24.4123 1.37142 24.4123 1.39224 24.4147 1.41567V1.42088L24.4996 3.87309C24.5069 4.11258 24.4292 4.34166 24.2764 4.51608C24.1236 4.69049 23.9175 4.79202 23.6944 4.80243C23.6847 4.80243 23.6725 4.80243 23.6628 4.80243C23.2117 4.80243 22.8455 4.42236 22.8285 3.93817L22.8139 3.52426L18.0262 8.55624C17.8686 8.72024 17.6624 8.81135 17.4417 8.81135C17.221 8.81135 17.0148 8.72024 16.8596 8.55624L14.963 6.57L8.6909 13.544C8.53325 13.721 8.31982 13.8173 8.08941 13.8173V13.8277Z" fill="url(#paint0_linear_41_1083)"/>
<path d="M7.9683 13.9503C7.5196 13.9503 7.15337 13.5572 7.15337 13.0756V2.70971L5.65206 3.7614C5.54534 3.84731 5.41437 3.89156 5.264 3.89156C5.11362 3.89156 4.90262 3.8421 4.71344 3.6C4.57276 3.42298 4.5 3.21473 4.5 2.98044C4.5 2.79041 4.56064 2.51707 4.84441 2.30621L7.41046 0.470957C7.60207 0.3434 7.7961 0.27832 7.98771 0.27832C8.21084 0.27832 8.4073 0.364226 8.55767 0.523021C8.71047 0.687022 8.78808 0.905691 8.78808 1.17122V13.0756C8.78808 13.5572 8.42185 13.9503 7.97316 13.9503H7.9683Z" fill="url(#paint1_linear_41_1083)"/>
<path d="M16.8305 14C13.2336 14 10.3086 10.8605 10.3086 7C10.3086 3.13946 13.236 0 16.8305 0C17.4902 0 18.1426 0.106731 18.7708 0.314987C19.2267 0.465973 19.4814 0.986612 19.3407 1.47601C19.2001 1.96541 18.715 2.23875 18.259 2.08777C17.8006 1.93418 17.3204 1.85608 16.8329 1.85608C14.1892 1.85608 12.0403 4.16251 12.0403 7C12.0403 9.83749 14.1892 12.1439 16.8329 12.1439C19.4766 12.1439 21.6255 9.83488 21.6255 7C21.6255 6.48717 22.0135 6.07326 22.4889 6.07326C22.9643 6.07326 23.3523 6.48977 23.3523 7C23.3523 10.8605 20.4273 14 16.8305 14Z" fill="#424C57"/>
<path d="M0.98 32V21.92H5.145C5.243 21.92 5.369 21.9247 5.523 21.934C5.677 21.9387 5.81933 21.9527 5.95 21.976C6.53333 22.0647 7.014 22.2583 7.392 22.557C7.77467 22.8557 8.057 23.2337 8.239 23.691C8.42567 24.1437 8.519 24.6477 8.519 25.203C8.519 25.7537 8.42567 26.2577 8.239 26.715C8.05233 27.1677 7.76767 27.5433 7.385 27.842C7.007 28.1407 6.52867 28.3343 5.95 28.423C5.81933 28.4417 5.67467 28.4557 5.516 28.465C5.362 28.4743 5.23833 28.479 5.145 28.479H2.667V32H0.98ZM2.667 26.904H5.075C5.16833 26.904 5.27333 26.8993 5.39 26.89C5.50667 26.8807 5.614 26.862 5.712 26.834C5.992 26.764 6.21133 26.6403 6.37 26.463C6.53333 26.2857 6.64767 26.085 6.713 25.861C6.783 25.637 6.818 25.4177 6.818 25.203C6.818 24.9883 6.783 24.769 6.713 24.545C6.64767 24.3163 6.53333 24.1133 6.37 23.936C6.21133 23.7587 5.992 23.635 5.712 23.565C5.614 23.537 5.50667 23.5207 5.39 23.516C5.27333 23.5067 5.16833 23.502 5.075 23.502H2.667V26.904ZM9.92141 32V21.92H14.0864C14.1844 21.92 14.3104 21.9247 14.4644 21.934C14.6184 21.9387 14.7607 21.9527 14.8914 21.976C15.4747 22.0647 15.9554 22.2583 16.3334 22.557C16.7161 22.8557 16.9984 23.2337 17.1804 23.691C17.3671 24.1437 17.4604 24.6477 17.4604 25.203C17.4604 26.0243 17.2527 26.7313 16.8374 27.324C16.4221 27.912 15.7851 28.276 14.9264 28.416L14.2054 28.479H11.6084V32H9.92141ZM15.7104 32L13.7224 27.898L15.4374 27.52L17.6214 32H15.7104ZM11.6084 26.904H14.0164C14.1097 26.904 14.2147 26.8993 14.3314 26.89C14.4481 26.8807 14.5554 26.862 14.6534 26.834C14.9334 26.764 15.1527 26.6403 15.3114 26.463C15.4747 26.2857 15.5891 26.085 15.6544 25.861C15.7244 25.637 15.7594 25.4177 15.7594 25.203C15.7594 24.9883 15.7244 24.769 15.6544 24.545C15.5891 24.3163 15.4747 24.1133 15.3114 23.936C15.1527 23.7587 14.9334 23.635 14.6534 23.565C14.5554 23.537 14.4481 23.5207 14.3314 23.516C14.2147 23.5067 14.1097 23.502 14.0164 23.502H11.6084V26.904ZM23.4266 32.21C22.4186 32.21 21.5553 31.9907 20.8366 31.552C20.1179 31.1087 19.5649 30.4927 19.1776 29.704C18.7949 28.9153 18.6036 28.0007 18.6036 26.96C18.6036 25.9193 18.7949 25.0047 19.1776 24.216C19.5649 23.4273 20.1179 22.8137 20.8366 22.375C21.5553 21.9317 22.4186 21.71 23.4266 21.71C24.4346 21.71 25.2979 21.9317 26.0166 22.375C26.7399 22.8137 27.2929 23.4273 27.6756 24.216C28.0629 25.0047 28.2566 25.9193 28.2566 26.96C28.2566 28.0007 28.0629 28.9153 27.6756 29.704C27.2929 30.4927 26.7399 31.1087 26.0166 31.552C25.2979 31.9907 24.4346 32.21 23.4266 32.21ZM23.4266 30.621C24.1033 30.6257 24.6656 30.4763 25.1136 30.173C25.5663 29.8697 25.9046 29.4427 26.1286 28.892C26.3573 28.3413 26.4716 27.6973 26.4716 26.96C26.4716 26.2227 26.3573 25.5833 26.1286 25.042C25.9046 24.496 25.5663 24.0713 25.1136 23.768C24.6656 23.4647 24.1033 23.3083 23.4266 23.299C22.7499 23.2943 22.1876 23.4437 21.7396 23.747C21.2916 24.0503 20.9533 24.4773 20.7246 25.028C20.5006 25.5787 20.3886 26.2227 20.3886 26.96C20.3886 27.6973 20.5006 28.339 20.7246 28.885C20.9486 29.4263 21.2846 29.8487 21.7326 30.152C22.1853 30.4553 22.7499 30.6117 23.4266 30.621Z" fill="#D3B583"/>
<defs>
<linearGradient id="paint0_linear_41_1083" x1="10.6991" y1="12.0081" x2="19.0791" y2="5.75631" gradientUnits="userSpaceOnUse">
<stop stop-color="#8C6239"/>
<stop offset="1" stop-color="#D3B583"/>
</linearGradient>
<linearGradient id="paint1_linear_41_1083" x1="6.73378" y1="5.65392" x2="7.17798" y2="20.4253" gradientUnits="userSpaceOnUse">
<stop stop-color="#8C6239"/>
<stop offset="1" stop-color="#D3B583"/>
</linearGradient>
</defs>
</svg>
