<svg xmlns="http://www.w3.org/2000/svg" width="16" height="16" viewBox="0 0 16 16" fill="none">
    <path d="M4.66669 10.6609C5.84025 10.713 8.50138 10.4769 10.015 7.27486M9.02317 6.88801L10.0445 6.66891C10.169 6.64778 10.3517 6.77877 10.3966 6.93492L10.6667 8.12416M1.5677 8.809C1.33235 7.27747 1.21468 6.51175 1.50422 5.83292C1.79375 5.15408 2.43612 4.68962 3.72086 3.76071L4.68076 3.06667C6.27896 1.91111 7.07809 1.33333 8.00009 1.33333C8.92216 1.33333 9.72122 1.91111 11.3194 3.06667L12.2794 3.76071C13.5641 4.68962 14.2065 5.15408 14.496 5.83292C14.7856 6.51175 14.6679 7.27747 14.4325 8.809L14.2318 10.1149C13.8982 12.2859 13.7314 13.3715 12.9528 14.0191C12.1742 14.6667 11.0359 14.6667 8.75929 14.6667H7.24089C4.96433 14.6667 3.82604 14.6667 3.04744 14.0191C2.26883 13.3715 2.10202 12.2859 1.76839 10.1149L1.5677 8.809Z" stroke="#424C57" stroke-linecap="round" stroke-linejoin="round"/>
</svg>