<svg width="18" height="18" viewBox="0 0 18 18" fill="none" xmlns="http://www.w3.org/2000/svg">
<path fill-rule="evenodd" clip-rule="evenodd" d="M8.05859 16.9068V16.9068C3.95432 16.086 0.999994 12.4823 1 8.29671V5.44445C1 2.98985 2.98985 1 5.44444 1H12.5556C15.0102 1 17 2.98985 17 5.44445V8.29669C17 12.4822 14.0458 16.0858 9.94161 16.9067H9.9414C9.31996 17.0311 8.68004 17.0311 8.05859 16.9068V16.9068Z" stroke="#C8CFDA" stroke-linecap="round" stroke-linejoin="round"/>
<path d="M7.09662 10.5556C7.448 11.2768 8.19922 11.7154 9 11.6667C9.97736 11.7734 10.8628 11.0847 11 10.1112V10.1112C11 9.43925 10.5257 8.86075 9.86689 8.72898L8.13311 8.38222C7.47425 8.25045 7 7.67195 7 7.00004V7.00004C7.13717 6.02649 8.02264 5.33779 9 5.44449C9.80078 5.39585 10.552 5.83439 10.9034 6.5556" stroke="#C8CFDA" stroke-linecap="round" stroke-linejoin="round"/>
</svg>
