<svg width="28" height="28" viewBox="0 0 28 28" fill="none" xmlns="http://www.w3.org/2000/svg">
<path d="M18.4446 16.2223C18.4446 17.1428 19.1908 17.889 20.1112 17.889C21.0317 17.889 21.7779 17.1428 21.7779 16.2223C21.7779 15.3019 21.0317 14.5557 20.1112 14.5557C19.1908 14.5557 18.4446 15.3019 18.4446 16.2223Z" stroke="#778698"/>
<path d="M21.6667 9.55558C21.7396 9.19657 21.7779 8.82499 21.7779 8.44447C21.7779 5.37623 19.2905 2.88892 16.2223 2.88892C13.1541 2.88892 10.6667 5.37623 10.6667 8.44447C10.6667 8.82499 10.705 9.19657 10.7779 9.55558" stroke="#778698"/>
<path d="M8.44447 9.54802H18.4445C21.5871 9.54802 23.1585 9.54802 24.1348 10.5248C25.1111 11.5016 25.1111 13.0736 25.1111 16.2179V18.4412C25.1111 21.5854 25.1111 23.1575 24.1348 24.1343C23.1585 25.1111 21.5871 25.1111 18.4445 25.1111H11.7778C7.58754 25.1111 5.49242 25.1111 4.19066 23.8088C2.88892 22.5063 2.88892 20.4102 2.88892 16.2179V13.9946C2.88892 9.80232 2.88892 7.70617 4.19066 6.4038C5.23854 5.35542 6.8005 5.15096 9.55558 5.11108H11.7778" stroke="#778698" stroke-linecap="round"/>
</svg>
