<svg xmlns="http://www.w3.org/2000/svg" width="24" height="24" viewBox="0 0 24 24" fill="none">
  <path d="M15.8889 13.9444C15.8889 14.7498 16.5419 15.4028 17.3472 15.4028C18.1526 15.4028 18.8056 14.7498 18.8056 13.9444C18.8056 13.139 18.1526 12.4861 17.3472 12.4861C16.5419 12.4861 15.8889 13.139 15.8889 13.9444Z" stroke="#778698"/>
  <path d="M18.7085 8.11092C18.7723 7.79679 18.8057 7.47166 18.8057 7.1387C18.8057 4.45398 16.6293 2.27759 13.9446 2.27759C11.2599 2.27759 9.0835 4.45398 9.0835 7.1387C9.0835 7.47166 9.11697 7.79679 9.18074 8.11092" stroke="#778698"/>
  <path d="M7.13894 8.10448H15.8889C18.6388 8.10448 20.0137 8.10448 20.868 8.95916C21.7223 9.81385 21.7223 11.1894 21.7223 13.9406V15.886C21.7223 18.6372 21.7223 20.0128 20.868 20.8675C20.0137 21.7222 18.6388 21.7222 15.8889 21.7222H10.0556C6.38913 21.7222 4.55589 21.7222 3.41686 20.5826C2.27783 19.443 2.27783 17.6089 2.27783 13.9406V11.9953C2.27783 8.327 2.27783 6.49287 3.41686 5.35329C4.33375 4.43596 5.70047 4.25706 8.11116 4.22217H10.0556" stroke="#778698" stroke-linecap="round"/>
</svg>