<svg xmlns="http://www.w3.org/2000/svg" width="25" height="24" viewBox="0 0 25 24" fill="none">
  <path d="M22.5401 6.93984C22.4206 6.49462 22.1862 6.0886 21.8604 5.76243C21.5347 5.43625 21.1289 5.20136 20.6839 5.08125C19.0456 4.64063 12.4784 4.64062 12.4784 4.64062C12.4784 4.64062 5.91121 4.64062 4.27292 5.07891C3.82766 5.19862 3.42173 5.43339 3.09591 5.75962C2.77008 6.08586 2.53583 6.49208 2.41667 6.9375C1.97839 8.57812 1.97839 12 1.97839 12C1.97839 12 1.97839 15.4219 2.41667 17.0602C2.65808 17.9648 3.37058 18.6773 4.27292 18.9188C5.91121 19.3594 12.4784 19.3594 12.4784 19.3594C12.4784 19.3594 19.0456 19.3594 20.6839 18.9188C21.5885 18.6773 22.2987 17.9648 22.5401 17.0602C22.9784 15.4219 22.9784 12 22.9784 12C22.9784 12 22.9784 8.57813 22.5401 6.93984ZM10.3925 15.1406V8.85938L15.83 11.9766L10.3925 15.1406Z" fill="#CDB28B"/>
</svg>